# Blender 4.5.0
# www.blender.org
o Cube.001
v -4.070127 -0.290543 1.514345
v -4.161305 -0.290543 1.397805
v -3.953588 -0.291217 1.423166
v -4.044767 -0.291217 1.306627
v -4.161305 2.240760 1.397805
v -4.043549 2.317259 1.305674
v -3.952370 2.317259 1.422213
v -4.070127 2.240760 1.514345
v -2.958852 2.240760 0.451756
v -3.080410 2.317259 0.546860
v -2.985306 2.317259 0.668418
v -2.863748 2.240760 0.573314
v -2.985306 -0.291217 0.668418
v -3.080410 -0.291217 0.546860
v -2.863748 -0.290543 0.573314
v -2.958852 -0.290543 0.451756
v -3.991464 1.572442 1.385139
v -3.991464 1.816546 1.385139
v -4.018165 1.572442 1.351011
v -4.018165 1.816546 1.351011
v -3.015947 1.572277 0.621912
v -3.015947 1.816381 0.621912
v -3.042647 1.572277 0.587784
v -3.042647 1.816381 0.587784
v -3.991464 1.043258 1.385139
v -3.991464 1.287362 1.385139
v -4.018165 1.043258 1.351011
v -4.018165 1.287362 1.351011
v -3.015947 1.043093 0.621912
v -3.015947 1.287197 0.621912
v -3.042647 1.043093 0.587784
v -3.042647 1.287197 0.587784
v -3.042647 1.553901 0.587784
v -3.042647 1.309796 0.587784
v -3.015947 1.553901 0.621912
v -3.015947 1.309796 0.621912
v -4.018165 1.554066 1.351011
v -4.018165 1.309961 1.351011
v -3.991464 1.554066 1.385139
v -3.991464 1.309961 1.385139
v -3.991464 1.897217 1.385139
v -3.991464 2.227811 1.385139
v -4.018165 1.897217 1.351011
v -4.018165 2.227811 1.351011
v -3.015947 1.897052 0.621912
v -3.015947 2.227645 0.621912
v -3.042647 1.897052 0.587784
v -3.042647 2.227645 0.587784
v -3.237751 1.897085 0.740430
v -3.315174 1.897118 0.801004
v -3.745639 1.897151 1.137792
v -3.823061 1.897184 1.198366
v -3.823061 2.372064 1.198366
v -3.745639 2.294372 1.137792
v -3.315174 2.294339 0.801004
v -3.237751 2.371965 0.740430
v -3.796360 1.897184 1.232493
v -3.718939 1.897151 1.171919
v -3.288474 1.897118 0.835131
v -3.211051 1.897085 0.774557
v -3.211051 2.371965 0.774557
v -3.288474 2.294339 0.835131
v -3.718939 2.294372 1.171919
v -3.796360 2.372064 1.232493
v -3.530406 1.897135 0.969398
v -3.530406 2.535622 0.969398
v -3.503706 1.897135 1.003525
v -3.503706 2.535622 1.003525
vn -0.7876 -0.0000 0.6162
vn -0.6162 -0.0000 -0.7876
vn 0.7876 -0.0006 -0.6162
vn 0.6162 -0.0000 0.7876
vn -0.3587 0.8902 0.2807
vn 0.7876 -0.0000 -0.6162
vn 0.3498 0.8960 -0.2736
vn -0.0001 -1.0000 0.0001
vn 0.0001 1.0000 -0.0001
vn -0.3963 0.8642 0.3101
vn 0.3965 0.8641 -0.3102
vn -0.4881 0.7848 0.3819
vn -0.5212 0.7497 0.4078
vn 0.4884 0.7846 -0.3821
vn -0.0003 -1.0000 0.0002
vn -0.0000 -1.0000 -0.0000
vn 0.5213 0.7496 -0.4078
vt 0.109850 -0.232288
vt 0.108833 1.186184
vt 0.008448 1.186112
vt 0.009466 -0.232360
vt 0.206864 -0.232288
vt 0.207882 1.186184
vt 0.106480 1.229125
vt 0.106480 -0.232594
vt 0.006096 1.229125
vt 0.006096 -0.232594
vt 0.210234 -0.232594
vt 0.210234 1.229125
vt 0.094237 0.908371
vt 0.094237 0.984661
vt 0.024692 0.984661
vt 0.024692 0.908372
vt 0.109664 -0.232594
vt 0.109664 1.229125
vt 0.009280 1.229125
vt 0.009280 -0.232594
vt 0.210048 -0.232216
vt 0.210048 1.186257
vt 0.108329 -0.232216
vt 0.108329 1.186257
vt 0.007945 1.186257
vt 0.007945 -0.232216
vt 0.024692 1.060611
vt 0.024692 0.984990
vt 0.094237 0.984990
vt 0.094237 1.060611
vt 0.208713 -0.232594
vt 0.208713 1.229125
vt 0.037295 -0.263048
vt 0.188402 -0.263068
vt 0.188401 0.503661
vt 0.037295 0.503681
vt 0.994887 0.309827
vt 0.994867 0.462161
vt 0.221914 0.462161
vt 0.221934 0.309827
vt 0.010471 0.503681
vt 0.010472 -0.263048
vt 0.215224 -0.263068
vt 0.215224 0.503661
vt 0.037781 0.503844
vt 0.188888 0.503824
vt 0.188888 1.270552
vt 0.037781 1.270573
vt 0.215711 0.503824
vt 0.215711 1.270552
vt 0.994887 0.004801
vt 0.994867 0.157135
vt 0.221913 0.157135
vt 0.221934 0.004801
vt 0.010958 1.270573
vt 0.010958 0.503844
vt 0.042859 0.136717
vt 0.182134 0.136699
vt 0.182134 0.843391
vt 0.042859 0.843409
vt 0.018136 0.843409
vt 0.018136 0.136717
vt 0.206856 0.136699
vt 0.206856 0.843391
vt 0.994887 0.157288
vt 0.994867 0.309621
vt 0.221914 0.309622
vt 0.221934 0.157288
vt 0.405604 0.977644
vt 0.407763 0.790207
vt 0.506501 0.847328
vt 0.504440 0.979193
vt 0.377345 0.466637
vt 0.377345 0.763184
vt 0.222651 0.673103
vt 0.222651 0.466658
vt 0.504184 0.996467
vt 0.405435 0.995005
vt 0.099117 0.793161
vt 0.001527 0.851489
vt -0.006869 0.835615
vt 0.098149 0.780071
vt 0.408526 0.776908
vt 0.516610 0.831203
vt 0.365917 0.814898
vt 0.367760 0.798901
vt 0.252655 0.720990
vt 0.141148 0.816976
vt 0.138981 0.801082
vt 0.252537 0.708684
vt 0.005580 0.983071
vt 0.104207 0.980053
vt 0.104631 0.997399
vt 0.006088 1.000308
vt 0.143818 0.979250
vt 0.144093 0.996758
vt 0.254897 0.977817
vt 0.365992 0.977404
vt 0.365985 0.994916
vt 0.255043 0.995419
vt 0.996122 0.466555
vt 0.996122 0.673000
vt 0.841428 0.763122
vt 0.841428 0.466576
vt 0.780041 0.714648
vt 0.780041 0.466596
vt 0.609387 0.466607
vt 0.609387 0.865321
vt 0.438732 0.714668
vt 0.438732 0.466617
s 0
f 1/1/1 8/2/1 5/3/1 2/4/1
f 2/5/2 5/6/2 6/7/2 4/8/2
f 4/8/3 6/7/3 7/9/3 3/10/3
f 3/11/4 7/12/4 8/2/4 1/1/4
f 8/13/5 7/14/5 6/15/5 5/16/5
f 13/17/1 11/18/1 10/19/1 14/20/1
f 15/21/4 12/22/4 11/18/4 13/17/4
f 16/23/6 9/24/6 12/25/6 15/26/6
f 9/27/7 10/28/7 11/29/7 12/30/7
f 14/31/2 10/32/2 9/24/2 16/23/2
f 19/33/2 20/34/2 24/35/2 23/36/2
f 21/37/4 22/38/4 18/39/4 17/40/4
f 19/33/8 23/36/8 21/41/8 17/42/8
f 24/35/9 20/34/9 18/43/9 22/44/9
f 27/45/2 28/46/2 32/47/2 31/48/2
f 32/47/9 28/46/9 26/49/9 30/50/9
f 29/51/4 30/52/4 26/53/4 25/54/4
f 27/45/8 31/48/8 29/55/8 25/56/8
f 38/57/2 37/58/2 33/59/2 34/60/2
f 38/57/8 34/60/8 36/61/8 40/62/8
f 33/59/9 37/58/9 39/63/9 35/64/9
f 36/65/4 35/66/4 39/67/4 40/68/4
f 49/69/2 56/70/2 48/71/2 47/72/2
f 57/73/4 64/74/4 42/75/4 41/76/4
f 49/69/8 47/72/8 45/77/8 60/78/8
f 53/79/10 44/80/10 42/81/10 64/82/10
f 48/71/11 56/70/11 61/83/11 46/84/11
f 56/70/12 55/85/12 62/86/12 61/83/12
f 66/87/13 54/88/13 63/89/13 68/90/13
f 54/88/14 53/79/14 64/82/14 63/89/14
f 43/91/8 52/92/8 57/93/8 41/94/8
f 52/92/15 51/95/15 58/96/15 57/93/15
f 65/97/16 50/98/16 59/99/16 67/100/16
f 50/98/15 49/69/15 60/78/15 59/99/15
f 45/101/4 46/102/4 61/103/4 60/104/4
f 60/104/4 61/103/4 62/105/4 59/106/4
f 67/107/4 68/108/4 63/109/4 58/110/4
f 58/110/4 63/109/4 64/74/4 57/73/4
f 43/91/2 44/80/2 53/79/2 52/92/2
f 52/92/2 53/79/2 54/88/2 51/95/2
f 65/97/2 66/87/2 55/85/2 50/98/2
f 50/98/2 55/85/2 56/70/2 49/69/2
f 51/95/2 54/88/2 66/87/2 65/97/2
f 59/106/4 62/105/4 68/108/4 67/107/4
f 51/95/16 65/97/16 67/100/16 58/96/16
f 55/85/17 66/87/17 68/90/17 62/86/17
