# Blender 4.5.0
# www.blender.org
o 03_birch
v 0.003668 -0.665830 -0.409977
v 0.272298 2.480812 -0.373448
v 0.361343 -0.652532 -0.056081
v 0.536305 2.458198 -0.340606
v 0.252122 -0.652532 0.280066
v 0.476171 2.490528 -0.063145
v -0.101324 -0.652532 0.280066
v -0.006467 0.346851 -0.252507
v -0.336633 -0.661623 -0.132394
v 0.232007 2.513594 -0.129114
v 0.274450 0.337985 -0.135005
v 0.189878 0.367726 0.161889
v -0.160778 0.376878 -0.007957
v 0.021865 0.372962 0.189770
v 0.727964 4.641045 -0.443637
v 0.907202 4.563439 -0.443397
v 0.894027 4.562821 -0.250784
v 0.718711 4.638681 -0.250570
v 1.011171 5.597362 -0.286979
v 1.145408 5.486311 -0.313420
v -2.503074 10.381126 -0.570147
v -1.063066 5.519193 0.100940
v 0.948780 10.944937 0.708016
v 1.793744 10.356438 -2.323622
v 3.580763 8.978082 0.608022
v 1.813805 5.425175 -2.152534
v -3.150743 6.436193 -2.864259
v -0.719176 4.749681 0.090552
v -2.474808 2.433302 -2.081370
v -0.756496 4.280918 2.216464
v -2.337636 3.648848 -0.219488
v -1.702856 8.685037 0.736785
v -0.152241 2.517819 0.296036
v -0.364026 2.510351 0.193360
v -0.233322 2.531829 -0.021024
v 0.075048 0.364014 0.135815
v -0.047474 2.541149 0.103648
v -0.126034 0.368245 -0.042312
v 0.015779 0.718318 -0.216411
v 0.219752 0.748257 -0.002442
v 0.100786 0.788153 -0.199720
v -0.590766 4.135764 0.100892
v -0.708297 4.097283 -0.019019
v -0.586399 4.128363 -0.133766
v -0.471176 4.166041 -0.016775
v -1.026886 5.660571 0.124244
v -1.130216 5.573081 0.099915
v -0.104805 2.116129 -0.029919
v -0.005394 1.879598 0.096212
v -0.112539 2.172140 0.267237
v -0.222738 2.257371 0.132629
v 0.306596 3.343823 0.601937
v 0.372580 3.296509 0.753860
v 0.220202 3.333815 0.820052
v 0.155315 3.380147 0.671640
v 0.602051 4.892219 1.008066
v 0.665756 4.814515 1.113793
v 2.166153 6.594401 -1.964149
v 1.033331 5.322232 -0.257246
v -0.171043 11.120605 0.906858
v 2.413267 9.013693 2.877020
v 0.580974 4.639154 1.003223
v 0.095387 10.997630 0.125386
v 1.101252 9.791324 -0.141858
v 0.604933 3.512179 -0.336528
v -3.348746 6.724457 2.460550
v 0.214577 9.191537 -2.073521
v 0.793156 4.585015 -0.359936
v -1.006350 8.698465 -2.749434
v 3.676223 8.170109 -1.908515
v 0.546251 3.167292 -0.215248
v -0.184052 9.943347 0.073153
v -0.692918 7.388111 -4.100660
v 1.078395 5.346378 -0.278016
v 2.677908 3.447376 -2.923852
v 3.148492 6.500816 1.399023
v 0.036976 4.058237 0.042549
v 3.020627 2.371743 1.233625
v 0.304165 6.127664 4.523512
v 0.427742 4.078160 0.880437
v 0.323027 2.043309 3.882687
v -1.793243 8.785004 -3.245397
v -1.088645 6.407059 0.121600
v -1.815425 4.659614 -2.974094
v 1.137269 9.390603 -3.275357
v 1.392478 7.157318 -0.355355
v 1.087069 5.748401 -3.209172
v -2.195235 8.304749 2.997660
v 0.814642 5.971745 1.269806
v -1.918184 4.182348 2.849304
v -1.112454 2.791213 3.205249
v 1.566023 2.205452 3.468050
v 0.506404 6.872661 3.375077
v 3.796008 4.101484 -1.905891
v 0.847304 3.577531 -2.908971
v 2.226521 8.241297 -2.418315
v -1.052702 3.150512 -2.594420
v -3.268711 2.734144 -0.862009
v -2.339645 7.290325 -1.560187
v 1.241906 5.367359 -3.749316
v -1.173760 4.689179 -1.781125
v -0.227075 10.092749 -2.568790
v -1.433660 7.556937 -1.854239
v -2.166737 6.878758 1.174263
v 2.579619 7.446219 4.383116
v 0.533591 5.591160 4.248155
v 3.166332 4.879733 2.310843
v 2.290737 7.878234 1.291128
v -2.914398 8.963044 -1.449018
v 0.296204 7.682014 -3.426163
v -2.400072 3.677079 -1.486744
v 1.937330 10.617076 1.108668
v 1.280804 9.820727 -2.161949
v 1.797722 6.116276 0.305542
v -0.150231 8.076439 3.018801
v -2.041269 7.066706 0.935462
v -0.400809 4.100115 2.875137
v -0.346855 7.936696 -1.599682
v -2.816789 7.076336 -0.152238
v -0.756457 3.170665 -1.701219
v -1.524887 10.755850 1.883737
v 0.191501 10.179388 -1.949127
v -0.781337 5.319321 0.522259
v 0.760610 10.523181 2.547810
v -0.236926 4.945508 2.564219
v 3.619370 4.657057 2.308916
v 3.820280 4.029632 -0.566844
v 3.752571 9.028808 0.570489
v 3.409778 4.145767 -0.743330
v 1.454048 3.551628 1.161159
v 2.219222 8.285579 0.400539
v -2.819690 4.359638 0.198900
v -2.072579 3.822883 3.300949
v -2.403436 8.600602 1.838237
v 0.367533 5.658336 -4.005817
v 0.707971 3.971824 -0.194317
v 0.483891 1.655444 -2.978069
v 1.947493 2.372655 -2.599291
v -0.859557 1.956287 -2.419258
v 0.301427 6.512467 -2.471503
v -1.278958 8.799093 -2.268485
v 2.564232 7.236814 -2.244622
v -1.123847 3.283752 -1.854401
v 0.078203 9.211092 -2.283860
v 2.653912 8.387014 -2.895417
v 0.597594 5.567808 -1.922562
v 0.747549 5.243598 3.867283
v 1.877019 4.637989 1.324299
v 1.440984 9.463334 2.333892
v 0.860571 10.814550 1.485677
v 0.466438 4.156693 0.875383
v -2.035235 9.373308 -1.141865
v 1.503068 6.372849 -1.510945
v -1.551595 5.646721 -0.169428
v -0.349828 11.432323 -0.712025
v -2.856452 6.866357 0.680528
v -2.254345 6.538267 -1.773453
v -2.527346 10.756131 -0.452723
v 0.605398 4.821985 1.125536
v 1.044464 5.573521 -0.217024
v -1.092194 5.585227 0.049821
v 2.611452 10.640586 -0.324245
v 0.763574 4.203303 -0.284433
v -3.132195 10.118553 -0.646331
v -1.029608 9.063745 2.661643
v -1.223033 7.158358 -0.020245
v -0.988366 5.810400 2.490510
v -0.070046 8.932164 1.783571
v -2.382170 8.181052 2.271637
v -0.534349 5.687929 1.341372
v 4.796594 7.062834 0.826182
v 4.477470 5.115699 0.721347
v -3.198840 4.850098 2.418232
v 3.462221 9.777576 -1.668189
v 2.908908 6.362479 -3.163811
v -0.583786 5.924456 -3.733925
v 0.728978 8.273506 -0.782502
v -0.993471 6.593628 -2.623379
v -2.607478 7.349264 -1.127656
v -3.654316 8.597969 -0.802523
v -1.962495 10.857205 0.290847
v -2.547470 10.518282 -0.383427
v -1.665782 9.964069 -0.922723
v 2.206042 9.160669 3.733340
v 1.479653 8.521946 3.561746
v 2.066510 9.856722 1.650203
v -0.075224 9.184182 2.928192
vn -0.2941 0.0844 -0.9520
vn -0.5403 0.0585 -0.8394
vn 0.8063 -0.1543 -0.5711
vn 0.9096 -0.0137 -0.4152
vn 0.4986 0.0023 0.8668
vn 0.6273 0.0576 0.7766
vn -0.3199 0.1312 0.9383
vn -0.8705 0.2089 0.4457
vn -0.9734 0.1812 0.1404
vn -0.9779 0.1688 -0.1233
vn -0.0835 0.1408 -0.9865
vn -0.4589 0.1200 0.8803
vn 0.6080 0.1209 0.7846
vn 0.9534 0.0981 -0.2852
vn 0.7173 -0.1245 -0.6856
vn 0.6752 -0.1249 0.7270
vn -0.6791 0.1994 0.7065
vn -0.6514 0.2182 -0.7267
vn -0.6511 0.2113 0.7290
vn -0.7856 0.3373 -0.5188
vn 0.9618 0.1373 -0.2367
vn 0.8622 -0.0041 -0.5065
vn 0.8507 -0.0148 -0.5255
vn 0.7741 0.0069 -0.6331
vn -0.8391 0.0025 0.5440
vn -0.2268 -0.1035 0.9684
vn 0.1621 0.0488 0.9856
vn -0.9644 -0.1509 0.2172
vn -0.8504 -0.1396 0.5073
vn -0.0809 0.0028 -0.9967
vn -0.6018 0.0130 -0.7986
vn 0.4087 0.1557 -0.8993
vn 0.9789 0.2011 -0.0367
vn 0.9653 0.1242 0.2296
vn -0.9694 -0.2275 0.0928
vn -0.0553 0.0099 -0.9984
vn 0.9477 0.2987 -0.1125
vn 0.1349 0.0779 0.9878
vn -0.9168 -0.2634 0.3003
vn 0.0277 0.1343 -0.9906
vn 0.5834 0.4282 0.6901
vn -0.2494 -0.3440 0.9052
vn 0.9675 -0.2412 -0.0763
vn 0.8719 -0.3328 0.3592
vn -0.4161 -0.1775 0.8918
vn -0.8023 0.4556 -0.3858
vn -0.9023 0.3459 -0.2573
vn 0.6233 0.1918 -0.7581
vn 0.3892 0.2477 -0.8872
vn 0.9378 -0.2326 0.2578
vn -0.5160 -0.0349 0.8558
vn -0.1352 0.5471 -0.8261
vn -0.9215 0.0283 0.3873
vn -0.2599 -0.0094 0.9656
vn -0.3170 0.0115 0.9483
vn 0.8479 -0.0236 0.5296
vn 0.9718 0.0025 0.2358
vn -0.3829 -0.0251 0.9235
vn -0.9994 0.0008 -0.0343
vn 0.9757 -0.0196 -0.2180
vn 0.9950 -0.0155 -0.0988
vn -0.4992 -0.0024 -0.8665
vn 0.0982 0.0025 -0.9952
vn -0.3213 -0.0046 0.9470
vn 0.6165 -0.0051 0.7874
vn 0.6312 0.0025 0.7756
vn -0.5922 0.0025 -0.8058
vn -0.5315 0.0926 -0.8420
vn -0.5371 -0.0463 -0.8422
vn -0.9802 -0.0049 0.1980
vn -0.7458 0.0229 0.6658
vn 0.5208 -0.0629 0.8513
vn -0.9137 -0.0234 -0.4057
vn -0.9975 0.0025 -0.0702
vn 0.6973 0.0025 0.7168
vn 0.9720 -0.0046 -0.2349
vn 0.9963 0.0069 -0.0859
vn 0.0648 -0.0051 0.9979
vn -0.0245 -0.0755 -0.9968
vn -0.2690 -0.1330 -0.9539
vn -0.9137 0.0025 -0.4064
vn 0.9182 -0.0181 -0.3957
vn 0.4016 0.0025 0.9158
vn -0.9707 0.0123 -0.2398
vn 0.1889 -0.0603 -0.9801
vn -0.9963 -0.0170 0.0840
vn 0.2551 -0.1663 0.9525
vn 0.5835 0.0283 0.8116
vn -0.5658 0.0477 -0.8232
vt 0.543537 0.005079
vt 0.628112 0.031692
vt 0.627348 0.087626
vt 0.542196 0.057316
vt 0.625146 0.141832
vt 0.540044 0.112772
vt 0.539310 0.143281
vt 0.623265 0.191130
vt 0.540256 0.194650
vt 0.624236 0.241839
vt 0.542476 0.245627
vt 0.501320 0.202221
vt 0.502138 0.247093
vt 0.500950 0.154836
vt 0.501353 0.117045
vt 0.501751 0.061553
vt 0.501100 0.003245
vt 0.690394 0.122531
vt 0.687888 0.151261
vt 0.688656 0.181843
vt 0.690410 0.209717
vt 0.693586 0.094731
vt 0.741294 0.164394
vt 0.740913 0.185729
vt 0.741633 0.137791
vt 0.743989 0.103293
vt 0.741839 0.135967
vt 0.579799 0.992863
vt 0.529853 0.820204
vt 0.625827 0.255178
vt 0.749785 0.992863
vt 0.678558 0.560505
vt 0.628768 0.258952
vt 0.748935 0.259193
vt 0.539932 0.743893
vt 0.500645 0.255474
vt 0.621948 0.282171
vt 0.749244 0.967275
vt 0.675814 0.532638
vt 0.749475 0.411964
vt 0.545690 0.007540
vt 0.551560 0.117330
vt 0.553320 0.143007
vt 0.552427 0.194049
vt 0.742453 0.155421
vt 0.744175 0.176810
vt 0.634023 0.143166
vt 0.631140 0.190011
vt 0.629310 0.239377
vt 0.633131 0.036525
vt 0.742684 0.159438
vt 0.562387 0.992863
vt 0.537106 0.777499
vt 0.708003 0.744212
vt 0.684799 0.992863
vt 0.500525 0.992863
vt 0.709071 0.750569
vt 0.675298 0.992863
vt 0.568801 0.992863
vt 0.535852 0.784883
vt 0.563743 0.609845
vt 0.522845 0.531463
vt 0.749357 0.694842
vt 0.729878 0.852645
vt 0.501662 0.262803
vt 0.622436 0.271428
vt 0.749338 0.740284
vt 0.729366 0.849615
vt 0.698972 0.473105
vt 0.667337 0.492547
vt 0.648301 0.377256
vt 0.665569 0.259026
vt 0.707487 0.741141
vt 0.678802 0.992863
vt 0.742715 0.928632
vt 0.749258 0.933319
vt 0.710759 0.760619
vt 0.671661 0.992863
vt 0.570379 0.992863
vt 0.534302 0.794008
vt 0.565089 0.992863
vt 0.536299 0.782250
s 1
f 8/1/1 2/2/2 4/3/3 11/4/4
f 11/4/4 4/3/3 6/5/5 12/6/6
f 12/6/6 6/5/5 14/7/7
f 14/7/7 6/5/5 10/8/8 13/9/9
f 13/9/9 10/8/8 2/10/2 8/11/1
f 9/12/10 13/9/9 8/11/1 1/13/11
f 7/14/12 14/7/7 13/9/9 9/12/10
f 5/15/13 12/6/6 14/7/7 7/14/12
f 3/16/14 11/4/4 12/6/6 5/15/13
f 1/17/11 8/1/1 11/4/4 3/16/14
f 6/5/5 4/3/3 16/18/15 17/19/16
f 10/8/8 6/5/5 17/19/16 18/20/17
f 2/10/2 10/8/8 18/20/17 15/21/18
f 4/3/3 2/2/2 15/22/18 16/18/15
f 18/20/17 160/23/19 19/24/20 15/21/18
f 17/19/16 16/18/15 20/25/21
f 18/20/17 17/19/16 20/25/21 160/23/19
f 16/18/15 15/22/18 19/26/20 20/27/21
f 184/28/22 105/29/22 62/30/22 63/31/22
f 24/32/23 25/33/23 26/34/23
f 27/35/24 28/36/24 29/37/24
f 32/38/25 31/39/25 30/40/25
f 36/41/26 33/2/27 34/3/28 38/4/29
f 38/4/29 34/3/28 35/5/30 39/42/31
f 39/42/31 35/5/30 41/43/32
f 41/43/32 35/5/30 37/8/33 40/44/34
f 40/44/34 37/8/33 33/10/27 36/11/26
f 35/5/30 34/3/28 43/18/35 44/19/36
f 37/8/33 35/5/30 44/19/36 45/20/37
f 33/10/27 37/8/33 45/20/37 42/21/38
f 34/3/28 33/2/27 42/22/38 43/18/35
f 44/19/36 43/18/35 47/27/39 161/45/40
f 44/19/36 161/45/40 46/46/41 45/20/37
f 42/21/38 45/20/37 46/46/41
f 43/18/35 42/22/38 46/26/41 47/27/39
f 50/47/42 49/3/43 53/18/44 54/19/45
f 51/48/46 50/47/42 54/19/45 55/20/47
f 48/49/48 51/48/46 55/20/47 52/21/49
f 49/3/43 48/50/48 52/22/49 53/18/44
f 54/19/45 53/18/44 57/27/50 159/51/51
f 54/19/45 159/51/51 56/46/52 55/20/47
f 52/21/49 55/20/47 56/46/52
f 53/18/44 52/22/49 56/26/52 57/27/50
f 73/52/53 176/53/53 68/30/53 177/54/53 67/55/53
f 64/56/54 65/30/54 172/57/54 171/58/54
f 164/59/55 180/60/55 22/30/55 23/31/55
f 175/61/56 58/62/56 74/36/56 75/37/56
f 183/63/57 181/64/57 104/39/57 103/40/57
f 76/35/58 77/36/58 78/37/58
f 79/35/59 80/36/59 81/37/59
f 82/35/60 83/36/60 84/37/60
f 85/35/61 86/36/61 87/37/61
f 88/35/62 89/65/62 90/66/62
f 93/38/63 92/39/63 91/40/63
f 96/38/64 95/39/64 94/40/64
f 99/38/65 98/39/65 97/40/65
f 102/38/66 101/39/66 100/40/66
f 185/67/67 61/68/67 107/39/67 106/40/67
f 187/69/68 124/70/68 186/71/68 108/72/68 125/34/68
f 109/32/69 110/33/69 111/34/69
f 112/32/70 113/33/70 114/34/70
f 115/32/71 116/33/71 117/34/71
f 118/32/72 119/33/72 120/34/72
f 121/32/73 122/33/73 123/34/73
f 128/38/74 127/39/74 126/40/74
f 131/38/75 130/39/75 129/40/75
f 134/38/76 133/39/76 132/40/76
f 135/35/77 136/36/77 137/37/77
f 140/38/78 139/39/78 138/40/78
f 141/32/79 142/33/79 143/34/79
f 144/32/80 145/33/80 146/34/80
f 149/38/81 148/39/81 147/40/81
f 150/56/82 151/30/82 178/73/82 69/74/82
f 155/38/83 154/39/83 153/40/83
f 158/38/84 21/75/84 182/76/84
f 162/56/85 163/30/85 179/77/85 152/78/85
f 165/35/86 166/36/86 167/37/86
f 168/32/87 169/33/87 170/34/87
f 66/79/88 173/80/88 71/30/88 72/31/88
f 174/81/89 70/82/89 59/30/89 60/31/89
f 182/76/84 21/75/84 157/39/84 156/40/84
