# Blender 4.5.0
# www.blender.org
o 02_sycamore
v -0.065960 -0.736330 -0.890717
v -0.229089 2.521089 -0.293293
v 0.700782 -0.707823 -0.132073
v 0.225565 2.527339 -0.460600
v 0.466647 -0.707823 0.588520
v 0.372874 2.510846 -0.110107
v -0.291029 -0.707823 0.588520
v -0.067711 0.605889 -0.414377
v -0.795458 -0.727312 -0.295666
v 0.032622 2.521048 0.139911
v 0.362418 0.605870 -0.235935
v 0.260216 0.609617 0.240692
v -0.409310 0.609597 0.002200
v -0.052111 0.597372 0.300165
v -0.021256 3.575800 -0.353480
v 0.437603 3.518073 -0.432882
v 0.241660 3.462512 -0.059859
v -0.305466 1.637324 -0.294444
v 0.699463 4.610137 -0.528723
v 0.387182 4.657358 -0.459080
v -2.206493 4.318963 -2.723915
v -3.485600 6.231136 0.989374
v -0.402092 6.561983 3.025877
v -0.528130 5.149411 -1.966161
v 0.358950 1.554765 -0.013068
v 0.158969 1.539114 -0.423891
v -0.262575 1.675312 0.089769
v 0.038829 1.641645 0.258132
v 0.580647 4.607484 -0.290537
v 0.708814 6.069136 -0.538604
v 0.561263 6.032081 -0.499294
v -0.067811 2.635318 -0.117098
v -0.194610 2.228101 -0.099257
v -0.042690 2.455114 -0.348673
v -0.992918 3.004200 -0.414074
v -0.831634 3.181829 -0.280495
v -0.793099 3.156762 -0.518739
v -1.528011 4.047081 -0.625603
v -1.397491 4.113457 -0.505913
v 0.276958 3.085574 -0.155266
v 0.117306 2.807675 0.057555
v -0.012840 2.944606 -0.199195
v 0.293083 3.965516 0.453223
v 0.219695 3.855972 0.602699
v 0.081117 3.926076 0.403023
v -0.036888 4.557837 1.094918
v 0.082392 4.669788 0.968837
v -0.045975 4.585926 0.941555
v -0.129378 5.304191 1.428888
v -0.072520 5.353770 1.301553
v -1.631702 10.674248 0.728271
v 0.661484 5.896624 -0.498726
v 1.126913 9.205797 -1.979181
v 4.209630 7.529609 -0.713056
v -0.124601 5.121790 1.262320
v -0.322058 9.671315 0.894895
v -2.824579 9.253393 -0.610032
v -1.367493 3.788480 -0.557381
v -0.176050 10.233060 0.087267
v 0.964357 8.894230 0.308676
v 0.156730 3.180993 -0.168553
v 3.975645 5.853012 -0.647535
v 0.235869 7.989148 -1.059520
v 0.243686 3.376302 -0.302148
v -0.915229 6.466190 1.441671
v 0.031954 2.125124 -0.010916
v 0.653465 5.783784 -3.671095
v 0.832825 2.268723 -2.341241
v -0.715448 2.991280 -0.337444
v 1.161074 3.468130 -2.388294
v -0.277620 5.369036 -2.547369
v 0.182712 2.472130 -0.179866
v -0.526654 2.011331 -3.397461
v 1.948599 6.064725 -1.013837
v 0.187252 2.818479 -0.302021
v 3.279938 2.903686 -1.505461
v 1.722486 9.511950 -0.170605
v -0.056424 4.843439 1.157684
v -2.678053 7.804607 -0.806542
v -1.010624 10.468871 -1.344008
v 0.624508 4.950313 -0.470237
v 1.105760 9.203248 -0.528314
v 1.316521 10.245527 -0.586550
v 0.407374 4.532290 -0.355328
v 1.644674 8.035217 -3.575233
v -3.778534 6.295441 -1.686949
v 0.085022 2.927599 -0.210379
v -0.559915 9.185890 -1.565973
v -0.430459 9.172781 0.954939
v 0.350287 3.560241 -0.360102
v -2.436116 3.625187 3.042765
v 0.481339 5.847794 0.639456
v 0.108016 2.164796 0.017673
v 1.249410 3.342706 2.896185
v -1.667456 4.364256 -3.533090
v 0.526438 4.580329 -0.383145
v -0.618832 10.015445 -1.965280
v -0.390037 2.928453 3.051238
v -3.317421 4.657577 0.742054
v -0.367085 9.157325 2.896450
v 2.720620 3.116357 0.378483
v 0.854902 4.665361 3.202049
v 2.746804 9.112261 0.076000
v 2.693111 4.053292 -2.350397
v 2.872484 5.727948 1.738261
v 1.463798 8.840826 -2.038622
v -2.925650 2.997540 -2.470598
v 0.705459 4.667053 -3.635253
v -1.772934 9.804109 0.553149
v 1.056454 6.158094 -1.471522
v -2.476617 7.708735 -1.481877
v 1.897572 10.640360 -0.942991
v 1.945447 5.969156 -0.686313
v 2.337087 2.257869 1.059987
v 1.012822 3.199219 -3.805424
v 0.385177 5.395158 1.275634
v -0.890227 2.518721 1.820947
v 2.630257 3.248316 0.123998
v -2.803414 5.680373 -0.457676
v -3.187038 2.296670 -2.339689
v -1.935919 2.868068 2.304826
v 0.257703 4.247211 -2.925298
v -0.531327 3.928806 2.461713
v -1.891868 6.900963 3.340418
v 1.219736 5.488381 2.434266
v 0.222231 9.886908 1.373010
v 0.220333 4.861361 -2.882113
v 3.271238 6.495536 -1.757115
v -0.773770 7.468802 -2.900711
v -2.028333 7.220632 -0.035041
v -2.277320 3.340646 -1.889426
v -1.340830 4.324788 3.298340
v -2.384728 7.220632 0.349149
v -4.130501 3.340646 -0.323920
v 0.868745 4.324786 1.348644
v -0.296453 10.992162 0.909868
v -2.798597 7.133092 -0.858378
v -0.650010 5.583582 2.081949
v 2.006868 6.505496 0.088168
v -0.632175 7.414264 1.987561
v 2.826981 6.736836 0.448963
v 0.627923 6.017155 -0.438770
v -0.134636 5.334512 1.282904
v -1.367146 4.120505 -0.670628
v -1.975055 9.622739 0.186525
v -1.362346 3.794139 -0.577371
v -1.225749 9.352841 -1.693271
v 0.155727 8.240365 0.829228
v -0.061363 4.488533 0.983404
v 2.781006 6.101913 1.564937
v 1.141735 5.987402 -1.123703
v 0.943733 6.896170 2.121763
v 0.357771 8.446097 3.411484
v 0.483834 7.026701 3.774802
v 2.953078 4.530900 2.191774
v 3.080163 6.209468 2.236926
v 1.604159 6.242481 -3.530648
v -1.860615 6.390204 -3.942604
v -3.544106 8.447917 -1.550156
v -2.166438 8.529679 -2.499908
v -1.807524 7.581525 1.916413
v 1.197842 8.676303 2.440722
v 1.538408 9.618607 0.425746
v 1.853438 7.231943 1.902774
v 2.652507 8.557926 -1.987407
v -0.092037 8.182167 -2.592026
v -2.583212 6.802354 -2.307982
v -1.986931 8.354187 1.590885
v -0.921742 7.327734 -2.767665
v -0.865954 9.197710 1.694340
v -0.071187 9.467165 2.311208
v -2.408972 10.166888 -0.690698
v 0.749590 9.718998 -1.337959
v 2.532535 9.187574 -1.286590
v 0.668067 8.344599 -0.645657
v -0.521453 7.481895 -1.875489
v 0.461188 11.145684 -0.280516
v 1.008268 9.373785 1.069157
v -0.779092 8.829927 1.559443
v -0.364789 8.732571 -1.131955
v -2.391428 6.232979 3.065041
v -2.361119 4.446927 2.904193
v -2.094509 2.429222 2.546435
v 0.658169 4.387025 -3.458561
v -3.804914 4.259878 -0.228807
v -2.558457 4.890621 -0.247015
v -3.994881 2.837549 -0.255772
v -2.751076 2.344963 -0.299102
v -0.640935 1.933153 -2.014258
v -1.480889 2.620122 -1.807769
vn -0.7700 0.0553 -0.6356
vn -0.9083 0.1872 -0.3741
vn 0.4741 -0.0221 -0.8802
vn 0.5049 -0.0209 -0.8629
vn 0.9142 0.0104 0.4051
vn 0.9468 0.0354 0.3200
vn 0.1535 0.0957 0.9835
vn -0.3133 0.2019 0.9279
vn -0.7925 0.1249 0.5969
vn -0.9338 0.3201 -0.1596
vn -0.9758 0.1772 0.1279
vn -0.2653 0.1608 -0.9507
vn -0.0450 0.3115 -0.9492
vn -0.4365 0.2369 0.8680
vn -0.2558 0.1674 0.9521
vn 0.5899 0.2872 0.7547
vn 0.7325 0.1890 0.6540
vn 0.9303 0.2552 -0.2636
vn 0.8566 0.1451 -0.4952
vn 0.7213 -0.1193 -0.6823
vn 0.1895 0.1965 0.9620
vn -0.9138 0.2887 -0.2856
vn -0.9331 0.2070 -0.2942
vn 0.8064 -0.1106 -0.5810
vn 0.2595 0.0902 0.9615
vn -0.2796 -0.0000 -0.9601
vn 0.2214 -0.0223 0.9749
vn 0.7162 0.0102 -0.6979
vn 0.2512 0.0825 0.9644
vn -0.8746 0.0921 -0.4761
vn -0.6894 -0.7237 0.0332
vn 0.3070 0.6529 0.6925
vn 0.2223 0.4833 0.8468
vn -0.7990 -0.6012 -0.0125
vn 0.1927 -0.0368 -0.9806
vn 0.4352 0.1690 -0.8843
vn 0.5473 0.1936 -0.8143
vn -0.8507 -0.4784 -0.2178
vn 0.2367 0.3639 0.9009
vn -0.9690 0.2021 -0.1419
vn -0.2915 -0.4341 0.8524
vn 0.1195 -0.5236 0.8436
vn -0.8159 0.3202 -0.4814
vn 0.7588 0.3181 -0.5683
vn 0.8633 0.3752 -0.3377
vn 0.8575 0.3985 -0.3254
vn -0.1718 -0.4762 0.8624
vn -0.8346 0.1568 -0.5281
vn -0.1090 -0.3688 0.9231
vn -0.7211 0.2214 -0.6565
vn 0.9353 0.2712 -0.2271
vn 0.4276 -0.0268 0.9036
vn -0.8825 0.0109 0.4702
vn -0.6181 0.0034 0.7861
vn -0.6529 0.0291 0.7569
vn 0.9902 0.0243 0.1378
vn -0.7652 0.0479 -0.6420
vn 0.9769 -0.0186 -0.2127
vn 0.3624 0.0077 0.9320
vn 0.9981 -0.0001 0.0609
vn -0.9919 -0.0338 0.1227
vn 0.0709 0.0291 0.9971
vn 0.9408 -0.0269 0.3379
vn -0.7624 0.0452 -0.6455
vn -0.9338 0.0345 0.3561
vn -0.4329 -0.0101 0.9014
vn 0.5841 -0.0001 0.8117
vn 0.2913 0.1104 -0.9503
vn -0.3338 0.0702 -0.9400
vn -0.9724 -0.0227 -0.2323
vn 0.9634 -0.0239 -0.2669
vn 0.4381 -0.0239 0.8986
vn -0.9637 -0.0377 0.2642
vn 0.8248 -0.0352 0.5643
vn -0.8033 0.0159 0.5954
vn -0.9830 -0.0239 0.1820
vn -0.3130 -0.0239 0.9495
vn -0.1301 -0.0338 0.9909
vn 0.9987 0.0130 -0.0491
vn -0.0201 -0.0392 0.9990
vn -0.2291 0.0532 0.9720
vn 0.9678 0.0217 -0.2508
vn -0.9482 0.0135 -0.3175
vn 0.9858 0.0773 0.1490
vn -0.0259 0.0224 -0.9994
vt 0.337036 0.001829
vt 0.369901 0.009175
vt 0.369868 0.074271
vt 0.334579 0.057448
vt 0.367665 0.123988
vt 0.333756 0.112238
vt 0.334831 0.162212
vt 0.366641 0.176578
vt 0.335888 0.201809
vt 0.368784 0.238927
vt 0.336762 0.245383
vt 0.253738 0.200274
vt 0.294346 0.193977
vt 0.296300 0.246935
vt 0.255833 0.247923
vt 0.252901 0.144372
vt 0.293417 0.142235
vt 0.252705 0.101634
vt 0.293386 0.106245
vt 0.253314 0.060486
vt 0.294017 0.051450
vt 0.254622 0.004589
vt 0.295248 0.003930
vt 0.409618 0.101976
vt 0.404424 0.160487
vt 0.409405 0.217075
vt 0.410797 0.038419
vt 0.450166 0.088356
vt 0.448890 0.127668
vt 0.447303 0.160599
vt 0.449140 0.190200
vt 0.499360 0.687709
vt 0.463729 0.768944
vt 0.424122 0.537560
vt 0.499475 0.411964
vt 0.428558 0.570348
vt 0.395397 0.345115
vt 0.418376 0.262542
vt 0.461999 0.266185
vt 0.474127 0.375398
vt 0.496848 0.153678
vt 0.497330 0.175198
vt 0.497147 0.122299
vt 0.370624 0.083217
vt 0.372278 0.012217
vt 0.434182 0.039038
vt 0.431374 0.092669
vt 0.373577 0.218456
vt 0.364858 0.152397
vt 0.429554 0.145000
vt 0.435481 0.191997
vt 0.496838 0.142618
vt 0.497568 0.105592
vt 0.494421 0.069285
vt 0.297776 0.163401
vt 0.300237 0.093980
vt 0.380718 0.085811
vt 0.378142 0.156636
vt 0.309417 0.220362
vt 0.382772 0.215065
vt 0.309566 0.016628
vt 0.381752 0.030149
vt 0.442842 0.048467
vt 0.441869 0.102462
vt 0.437862 0.140282
vt 0.442875 0.176848
vt 0.495841 0.111282
vt 0.495509 0.149273
vt 0.495042 0.067196
vt 0.250525 0.993879
vt 0.375827 0.255178
vt 0.462076 0.769161
vt 0.427092 0.993879
vt 0.331773 0.993879
vt 0.290538 0.757990
vt 0.499785 0.993879
vt 0.499361 0.686455
vt 0.462622 0.762391
vt 0.465938 0.792176
vt 0.424061 0.993879
vt 0.462586 0.772197
vt 0.424003 0.993879
vt 0.462578 0.772152
vt 0.431797 0.993879
vt 0.280704 0.804182
vt 0.250645 0.255474
vt 0.370397 0.286894
vt 0.499350 0.711922
vt 0.460494 0.749793
vt 0.324372 0.993879
vt 0.302071 0.689997
vt 0.459989 0.756722
vt 0.428965 0.993879
vt 0.463990 0.780566
vt 0.426075 0.993879
vt 0.499355 0.700166
vt 0.460218 0.748161
vt 0.466315 0.794421
vt 0.417145 0.993879
vt 0.328262 0.993879
vt 0.294244 0.736141
vt 0.499354 0.702340
vt 0.460421 0.749365
vt 0.499355 0.701435
vt 0.460790 0.751548
vt 0.499355 0.701307
vt 0.460954 0.752520
vt 0.333444 0.993879
vt 0.289728 0.762762
vt 0.464237 0.782038
vt 0.423356 0.993879
vt 0.382802 0.259572
vt 0.498935 0.269269
vt 0.499353 0.704921
vt 0.459897 0.746262
vt 0.499352 0.706497
vt 0.459155 0.741872
vt 0.329145 0.993879
vt 0.296037 0.725567
vt 0.458859 0.749988
vt 0.433960 0.993879
vt 0.499354 0.703179
vt 0.460367 0.749044
vt 0.499358 0.692148
vt 0.461234 0.754176
vt 0.338025 0.993879
vt 0.286147 0.783876
vt 0.333559 0.993879
vt 0.289988 0.761229
vt 0.460450 0.759470
vt 0.428056 0.993879
vt 0.499361 0.684917
vt 0.462539 0.761899
vt 0.318149 0.588225
vt 0.269984 0.608497
vt 0.322274 0.274268
vt 0.349784 0.405778
s 1
f 18/1/1 2/2/2 4/3/3 26/4/4
f 26/4/4 4/3/3 6/5/5 25/6/6
f 25/6/6 6/5/5 28/7/7
f 28/7/7 6/5/5 10/8/8 27/9/9
f 27/9/9 10/8/8 2/10/2 18/11/1
f 9/12/10 13/13/11 8/14/12 1/15/13
f 7/16/14 14/17/15 13/13/11 9/12/10
f 5/18/16 12/19/17 14/17/15 7/16/14
f 3/20/18 11/21/19 12/19/17 5/18/16
f 1/22/13 8/23/12 11/21/19 3/20/18
f 6/5/5 4/3/3 16/24/20 17/25/21
f 10/8/8 6/5/5 17/25/21
f 2/10/2 10/8/8 17/25/21 15/26/22
f 4/3/3 2/2/2 15/27/22 16/24/20
f 16/24/20 15/27/22 20/28/23 19/29/24
f 15/26/22 17/25/21 29/30/25 20/31/23
f 17/25/21 16/24/20 19/29/24 29/30/25
f 100/32/26 162/33/26 125/34/26 124/35/26
f 24/36/27 190/37/27 189/38/27 68/39/27 70/40/27
f 13/13/11 27/9/9 18/11/1 8/14/12
f 14/17/15 28/7/7 27/9/9 13/13/11
f 12/19/17 25/6/6 28/7/7 14/17/15
f 11/21/19 26/4/4 25/6/6 12/19/17
f 8/23/12 18/1/1 26/4/4 11/21/19
f 29/30/25 19/29/24 30/41/28 142/42/29
f 19/29/24 20/28/23 31/43/30 30/41/28
f 29/30/25 142/42/29 31/43/30 20/28/23
f 33/44/31 32/45/32 36/46/33 35/47/34
f 32/48/32 34/49/35 37/50/36 36/51/33
f 34/49/35 33/44/31 35/47/34 37/50/36
f 144/52/37 37/50/36 35/47/34 38/53/38
f 35/47/34 36/46/33 39/54/39 38/53/38
f 37/50/36 144/52/37 39/54/39 36/46/33
f 42/55/40 41/56/41 44/57/42 45/58/43
f 40/59/44 42/55/40 45/58/43
f 40/59/44 45/58/43 43/60/45
f 41/56/41 40/61/44 43/62/45 44/57/42
f 44/57/42 43/62/45 47/63/46 46/64/47
f 43/60/45 45/58/43 48/65/48 47/66/46
f 45/58/43 44/57/42 46/64/47 48/65/48
f 46/64/47 49/67/49 143/68/50 48/65/48
f 46/64/47 47/63/46 50/69/51 49/67/49
f 48/65/48 143/68/50 50/69/51 47/63/46
f 51/70/52 52/71/52 174/72/52 112/73/52
f 158/74/53 95/75/53 87/71/53 88/76/53
f 23/77/54 161/78/54 99/34/54 98/35/54
f 60/70/55 61/71/55 155/79/55 156/80/55
f 63/70/56 64/71/56 184/81/56 67/82/56
f 65/70/57 66/71/57 183/83/57 91/84/57
f 71/85/58 72/86/58 73/87/58
f 74/85/59 75/86/59 76/87/59
f 82/88/60 178/89/60 152/34/60 151/35/60
f 97/90/61 176/91/61 78/71/61 171/92/61 136/93/61
f 83/70/62 84/71/62 62/94/62 54/95/62
f 160/96/63 57/97/63 22/34/63 21/35/63
f 89/70/64 90/71/64 182/98/64 181/99/64
f 92/85/65 93/86/65 94/87/65
f 159/100/66 86/101/66 58/71/66 59/76/66
f 163/102/67 126/103/67 140/34/67 139/35/67
f 166/104/68 106/105/68 128/34/68 127/35/68
f 167/106/69 129/107/69 108/34/69 107/35/69
f 147/108/70 169/109/70 146/71/70 168/110/70 109/111/70
f 113/36/71 114/112/71 115/113/71
f 116/36/72 117/112/72 118/113/72
f 119/36/73 120/112/73 121/113/73
f 141/114/74 164/115/74 102/34/74 101/35/74
f 170/116/75 145/117/75 137/34/75 138/35/75
f 130/36/76 131/112/76 132/113/76
f 133/36/77 134/112/77 135/113/77
f 172/118/78 79/119/78 81/71/78 77/120/78 177/121/78
f 165/122/79 103/123/79 105/34/79 104/35/79
f 173/124/80 80/125/80 111/34/80 110/35/80
f 148/85/81 149/86/81 150/87/81
f 153/126/82 154/127/82 55/71/82 56/76/82
f 85/128/83 157/129/83 96/71/83 175/130/83 53/131/83
f 180/132/84 179/133/84 123/34/84 122/35/84
f 185/134/85 186/135/85 69/86/85 188/136/85 187/137/85
