<svg id="Layer_1" data-name="Layer 1" xmlns="http://www.w3.org/2000/svg" viewBox="0 0 982.11 979.49"><defs><style>.cls-1{fill:#343c3e;}</style></defs><title>light-naked</title><path class="cls-1" d="M500,11.11C398,11.11,326.42,46.6,287.75,77.94c-22.64,19.47-30.52,32.46-52.61,53.86-27.62,26.79-52.75,9.25-96.11,48.61C54.38,260,9,373.6,9,499.54,9,770.75,228.79,990.59,500,990.59s491.05-220,491.05-491.19S771.21,11.11,500,11.11Zm-.41,920.24C261,931.35,67.5,737.88,67.5,499.26,67.5,327.2,171.34,208,199.37,208c18.92,0,10.91,41.56,87.14,83.27,230.89,118.2,582.2,53.85,582.2,338.87,0,173.45-186.43,301.18-369.12,301.18ZM889.7,369.73c-76.23-29-131.47-45-199.69-57.44C592.94,294.75,492.27,293,395.46,273.07,356.38,263.82,261.1,240.89,273,180.68c10.77-50.54,98.18-111.85,226.47-111.85,186,0,344.54,116.13,405.44,281a19.26,19.26,0,0,1,.27,12.15c-2.07,6.21-9.11,9.53-15.46,7.73Z" transform="translate(-8.95 -11.11)"/></svg>