<svg id="Layer_1" data-name="Layer 1" xmlns="http://www.w3.org/2000/svg" xmlns:xlink="http://www.w3.org/1999/xlink" viewBox="0 0 1000 1000"><defs><style>.cls-1{isolation:isolate;}.cls-2{fill:#343c3e;}</style></defs><title>icon_coloured_tight</title><image class="cls-1" width="1000" height="1000" xlink:href="1B05429D.png"/><path class="cls-2" d="M500,165.89c-69.77,0-118.72,24.26-145.23,45.73-15.57,13.31-20.83,22.11-36,36.82-18.9,18.35-36.07,6.33-65.7,33.16-57.85,54.32-89,132.14-89,218.23,0,185.49,150.28,336,335.87,336s335.87-150.39,335.87-336S685.49,166,500,165.89Zm-.32,629.45c-163.16,0-295.51-132.35-295.51-295.51,0-117.65,71-199.12,90.16-199.12,13,0,7.41,28.34,59.58,57,157.9,80.83,398.24,36.82,398.24,231.75.1,118.4-127.42,205.88-252.47,205.88ZM766.53,411.27C714.36,391.42,676.58,380.47,630,372c-66.34-12-135.25-13.21-201.48-26.73-26.73-6.44-91.88-22.11-83.83-63.23,7.3-34.56,67.19-76.53,154.89-76.53,127.31,0,235.62,79.43,277.26,192.25a13.89,13.89,0,0,1,.22,8.37A9,9,0,0,1,766.53,411.27Z" transform="translate(0 0)"/></svg>