<svg id="Layer_1" data-name="Layer 1" xmlns="http://www.w3.org/2000/svg" xmlns:xlink="http://www.w3.org/1999/xlink" viewBox="0 0 1000 1000"><defs><style>.cls-1{isolation:isolate;}.cls-2{fill:#343c3e;}</style></defs><title>icon_coloured_comfy</title><image class="cls-1" width="1000" height="1000" xlink:href="1B05429D.png"/><path class="cls-2" d="M500,206c-61.42,0-104.51,21.35-127.85,40.25-13.7,11.72-18.33,19.47-31.66,32.41-16.63,16.16-31.75,5.58-57.83,29.2C231.73,355.66,204.32,424.17,204.32,500c0,163.29,132.3,295.77,295.68,295.77S795.68,663.33,795.68,500,663.29,206.07,500,206Zm-.28,554.12C356.08,760.1,239.57,643.59,239.57,500c0-103.56,62.46-175.29,79.38-175.29,11.43,0,6.52,24.95,52.44,50.18C510.39,446,722,407.25,722,578.86,722.06,683.08,609.8,760.1,499.72,760.1ZM734.63,422c-45.92-17.48-79.18-27.12-120.2-34.58C556,376.82,495.37,375.79,437.07,363.88c-23.53-5.67-80.89-19.47-73.8-55.66,6.42-30.43,59.15-67.37,136.35-67.37,112.07,0,207.42,69.92,244.08,169.24a12.27,12.27,0,0,1,.19,7.37A7.89,7.89,0,0,1,734.63,422Z" transform="translate(0 0)"/></svg>