<?xml version="1.0" encoding="utf-8"?>
<!-- Generator: Adobe Illustrator 23.0.3, SVG Export Plug-In . SVG Version: 6.00 Build 0)  -->
<svg version="1.1" id="Layer_1" xmlns="http://www.w3.org/2000/svg" xmlns:xlink="http://www.w3.org/1999/xlink" x="0px" y="0px"
	 viewBox="0 0 1000 1000" style="enable-background:new 0 0 1000 1000;" xml:space="preserve">
<style type="text/css">
	.st0{fill:#343C3E;}
</style>
<title>icon_coloured</title>
<image style="overflow:visible;" width="1000" height="1000" xlink:href="5CBE07EA.png" >
</image>
<path class="st0" d="M500,219.9c-58.5,0-99.6,20.3-121.8,38.3c-13,11.2-17.5,18.6-30.2,30.9c-15.8,15.4-30.3,5.3-55.1,27.9
	c-48.6,45.6-74.6,110.8-74.6,183.1c0,155.7,126.1,281.8,281.7,281.8S781.7,655.6,781.7,500S655.6,219.9,500,219.9L500,219.9z
	 M499.8,747.8c-136.9,0-247.9-111-247.9-247.9c0-98.7,59.6-167.1,75.6-167.1c10.9,0,6.3,23.9,50,47.8c132.5,67.8,334,30.9,334,194.4
	C711.5,674.5,604.6,747.8,499.8,747.8L499.8,747.8z M723.6,425.7c-43.7-16.6-75.4-25.8-114.6-33c-55.7-10.1-113.5-11.1-169-22.5
	c-22.4-5.4-77.1-18.5-70.3-53c6.2-29,56.3-64.2,129.9-64.2c103.7-0.3,196.5,64,232.6,161.2c0.8,2.3,0.9,4.7,0.2,7
	C731.1,424.8,727.2,426.7,723.6,425.7z"/>
</svg>
