<svg xmlns="http://www.w3.org/2000/svg" viewBox="0 0 1337.24 959.01"><defs><style>.cls-1,.cls-2,.cls-3,.cls-4,.cls-5,.cls-6,.cls-7,.cls-8,.cls-9{fill:none;stroke:#fff;stroke-miterlimit:10;}.cls-1,.cls-2,.cls-3,.cls-4,.cls-5,.cls-6,.cls-7{stroke-linecap:round;stroke-width:9px;}.cls-1{opacity:0.5;}.cls-3{stroke-dasharray:1.01 14.15;}.cls-4{stroke-dasharray:0.94 13.16;}.cls-5{stroke-dasharray:0.99 13.91;}.cls-6{stroke-dasharray:0.99 13.91;}.cls-7{stroke-dasharray:0.99 13.82;}.cls-8,.cls-9{stroke-linecap:square;}.cls-8{stroke-width:6px;}.cls-9{stroke-width:2px;}.cls-10{fill:#fff;}</style></defs><title>driftmas_route</title><g id="Layer_1" data-name="Layer 1"><path id="BASE" class="cls-1" d="M219,971.94s-2.69-12.08-2.69-17.45,4.39-12.69,5.37-21.48,3.31-29,4-33.55a36.39,36.39,0,0,1,2.68-9.4c1-2.27,6.77-9.33,8.06-12.08a19,19,0,0,0,1.34-8.05c0-1.82-.71-8.12-2.68-12.09a123.49,123.49,0,0,0-9.4-14.76c-10.17-10.14-17.7-7.21-30.87-4-7.77,1.43-15.51-2.11-21.48-5.37s-13.61-9.6-18.79-12.08-19.86-5.84-25.51-9.39-15.7-12.16-22.81-14.77-12.56-2.19-18.8,0c-11.76,4.51-23.77,4.11-32.21-1.34-9.7-6.29-19.33-28.48-24.16-41.61-2.29-7-6.11-13.79-6.71-21.48-1-11,1.63-20.54,8.05-24.16s8.78-2.75,10.74-4,18.38-13.6,21.47-14.76S78,689.3,82.11,691.4s16.37,14,25.51,17.45,17.93,3.72,28.19,4,45.43-4.72,57.71-10.74a32.53,32.53,0,0,0,8.06-6.71c7.71-8.63,16.5-12.81,29.53-9.4,8.75,2.45,15.85,6.72,18.79,9.4s4.28,11.77,5.28,14.76c1.39,4.13,8.14,16,8.23,22.82.74,9.48-3.94,19.09-4.11,26.85s10.54,17.19,18.79,21.47,20,20.34,24.16,25.51,9.51,16.68,12.08,20.13,8.19,6.79,12.08,8.06,19,4.19,25.5-1.35c4.36-3.67,13.46-18.93,14.77-22.82s.71-12.58,2.68-17.45,12.73-18.75,13.43-24.16c1.53-7.08-2.64-17-5.37-21.47S364.51,728.09,360,719.59s-1-19.72,2.68-24.16,9.79-9.53,13.43-17.45,2.64-20.47,0-25.51c-5.16-9.63-3.67-33.21-6.72-40.26s-13.93-27.58-22.81-33.56c-5.36-4.07-9.35-6.53-13.43-10.74-7-6.73-5.43-14.45-12.08-21.48a37.78,37.78,0,0,0-20.13-10.73,35.4,35.4,0,0,1-20.14-12.09c-4.9-5.56-11-9.24-13.42-17.45s-9.9-17-22.82-18.28c-13.88-.81-23.23-3.48-32.79-2.35s-18.09,4.34-24.93,5.87-19.39,4.88-26.84,1.34c-8.88-4-18.78-3.46-29.53-2.68s-15.8-3.42-24.58-10.74-13.56-11.49-17-16.11c-8.93-12.57-.13-29.74,13.42-32.21,35.86-4.23,40.88-13.44,48.65-25.51,4.79-8,9.15-13.71,9.9-16.1,3.69-9.94-4-23.59-5.78-29.53C149.68,347.7,146.85,321.1,144,317s-28-25.91-32.64-35.32-4.18-20.34,1.68-27.86,26.15-25,30.87-28.18c7.23-5.29,20.43-4.52,29.53-1.35s18.53,5.4,22.82,8.06,12.68,16.6,14.76,22.82-.41,35.3.84,43c2.09,12.67,15.75,24.61,21.48,29.53,11.25,9.85,26.13,13.31,35.4,15.18s16.81,4.39,23.75-1.25c5.2-4.41,13.68-18.55,13.84-24.67s-4.79-15.06-8.39-21.06c-5.27-8.09-3.1-20,1.68-27.26s5.12-15.23,6.2-21.48c4-19.23,20.35-28.44,35.41-30.45,17.18-3.43,36.4-18,45.63-21,52.37-14.29,24.31-26.43,55-39.85,18.68-7.94,17.57-7.93,24.82-9.4,10.19-2.3,14.84-14.44,15.45-22.82s-1.2-14.72-1.35-20.13c.28-11.7,6.8-23.92,9.82-30.37s11.81-19,23.32-19.21c9-.22,40.32.12,50.42-1.93s18.54-12,23.32-16.86c15.67-19.95,31.58-15.77,44.8,2.6,5.62,8,6.65,5.57,10.74,8s19.2,11.49,28.19,17.45c13.17,8.06,14.29,16.42,21.06,30.87s16.57,19.39,21.3,25.51c6,8.21,7.86,21.12,3.78,30.36s-9.84,23.71-3.61,34.07,9.17,12.64,19.63,16.52,18.42-1.47,22.4-4.44c10.86-10.65,21-9.86,29.45-5.37s17.85,14.77,24.25,22.82c7.65,9.3,11.84,10.14,28.18,10.73,7.11.24,15.34.18,23.16,1.68,14.51,3.17,17.2,17.69,17.11,24.66s-.08,8.4-.92,11.67-3,8.59-4,17,1.76,12.3.59,18.95-11.39,15.2-22.4,16.37-13.19.67-24.66,1.34-18.11,3.69-27.77,23.74S787.58,362,783,365.05c-6.29,4.35-13.73,3.21-24.66,5s-18.89,7.68-25.17,11.66S718.3,390,709,391.23s-15.43,1.83-21,4.87a84.37,84.37,0,0,1-20.13,8c-7.18,1.68-13.32,10-15.27,16.11s-3.64,15.26-15.78,22.4-11.43,13.86-11.57,21,5.88,14.74,11.24,19.72c8.71,7.9,11.48,9.11,26.85,5.78s18.37-7,21.47-19.21,7.49-18.81,10.74-22.82,8.45-10.87,16.11-13.92,7.21,1.21,14.76-2.18,24.89-14.1,30.88-18.8,12.5-6.21,20.13-6.71,18.28-1.4,31,7.64,7.76,25.32,3.52,30.78-7.85,12.46-8.14,24.25,3.17,14.49,10.24,20,19.16,3.06,26.51-2.18S851,472.78,851.75,465.9s-.46-13.12.33-19.63,7.31-16,16.62-18,24.3,1.64,32.72,4.87,13.16,12.58,16,17.95,3.52,12.78,3.61,17.45-2.29,37-4,41.78-8.43,14.16-9.9,22.65,5.68,18.82,5.45,27.27-8.75,20.31-8.05,34.89c.7,11.65,8.55,21.53,14.26,27.27,4.6,4.62,12,13.7,30,14,13.78.52,15.27-6.25,17.87-10.82s10-15.6,20.14-20.14,13.51-7,26.67-9.31,26.57.18,35.07,17c8.24,15.47,8.21,15.61,11.16,27.26s8,32.7,13.84,38.93c8.79,10,21.35,10,35.49-1.26,6.38-5.49,10.5-17.11,12-22.82,2.33-10.73,15.32-13.18,23.9-12.16s16.39,10.53,23.58,21.47,5,17,8,28.44c.9,6.37,15,13.38,22.82,18.46s21.17,16.09,26.43,20.22c14,10.41,6.76,27.57,12.08,34.9s21.67,17.2,30.87,21.48a122,122,0,0,1,26.09,16.52c8.65,7,6.14,12,13.25,17s7.93,2.34,15.69,4.12,10.12,3.17,12.92,4.77a35.71,35.71,0,0,1,10.32,8.9,30.05,30.05,0,0,1,5.46,15.77" transform="translate(-19.68 -17.43)"/><path id="SOLID" class="cls-2" d="M173.39,224.28c9.1,3.17,18.53,5.4,22.82,8.06s12.68,16.6,14.76,22.82-.41,35.3.84,43c2.09,12.67,15.75,24.61,21.48,29.53,11.25,9.85,26.13,13.31,35.4,15.18s16.81,4.39,23.75-1.25c5.2-4.41,13.68-18.55,13.84-24.67s-4.79-15.06-8.39-21.06c-5.27-8.09-3.1-20,1.68-27.26s5.12-15.23,6.2-21.48c4-19.23,20.35-28.44,35.41-30.45,17.18-3.43,36.4-18,45.63-21,52.37-14.29,24.31-26.43,55-39.85,18.68-7.94,17.57-7.93,24.82-9.4,10.19-2.3,14.84-14.44,15.45-22.82s-1.2-14.72-1.35-20.13c.28-11.7,6.8-23.92,9.82-30.37s11.81-19,23.32-19.21c9-.22,40.32.12,50.42-1.93s18.54-12,23.32-16.86c15.67-19.95,31.58-15.77,44.8,2.6,5.62,8,6.65,5.57,10.74,8s19.2,11.49,28.19,17.45c13.17,8.06,14.29,16.42,21.06,30.87s16.57,19.39,21.3,25.51c6,8.21,7.86,21.12,3.78,30.36s-9.84,23.71-3.61,34.07,9.17,12.64,19.63,16.52,18.42-1.47,22.4-4.44c10.86-10.65,21-9.86,29.45-5.37s17.85,14.77,24.25,22.82c7.65,9.3,11.84,10.14,28.18,10.73" transform="translate(-19.68 -17.43)"/><path id="SOLID-2" data-name="SOLID" class="cls-2" d="M912.57,560.28c-.23,8.44-8.75,20.31-8.05,34.89.7,11.65,8.55,21.53,14.26,27.27,4.6,4.62,12,13.7,30,14,13.78.52,15.27-6.25,17.87-10.82s10-15.6,20.14-20.14,13.51-7,26.67-9.31,26.57.18,35.07,17c8.24,15.47,8.21,15.61,11.16,27.26s8,32.7,13.84,38.93c8.79,10,21.35,10,35.49-1.26,6.38-5.49,10.5-17.11,12-22.82,2.33-10.73,15.32-13.18,23.9-12.16s16.39,10.53,23.58,21.47,5,17,8,28.44c.9,6.37,15,13.38,22.82,18.46s21.17,16.09,26.43,20.22c14,10.41,6.76,27.57,12.08,34.9" transform="translate(-19.68 -17.43)"/><path id="SOLID-3" data-name="SOLID" class="cls-2" d="M852.08,446.27c.8-6.52,7.31-16,16.62-18s24.3,1.64,32.72,4.87,13.16,12.58,16,17.95" transform="translate(-19.68 -17.43)"/><path id="SOLID-4" data-name="SOLID" class="cls-2" d="M31.11,754.49c-2.29-7-6.11-13.79-6.71-21.48-1-11,1.63-20.54,8.05-24.16s8.78-2.75,10.74-4,18.38-13.6,21.47-14.76S78,689.3,82.11,691.4s16.37,14,25.51,17.45,17.93,3.72,28.19,4,45.43-4.72,57.71-10.74a32.53,32.53,0,0,0,8.06-6.71c7.71-8.63,16.5-12.81,29.53-9.4,8.75,2.45,15.85,6.72,18.79,9.4s4.28,11.77,5.28,14.76" transform="translate(-19.68 -17.43)"/><g id="DASHED"><path class="cls-2" d="M1237.83,766.57l.29.4" transform="translate(-19.68 -17.43)"/><path class="cls-3" d="M1248.69,776.32a140.25,140.25,0,0,0,20,11.73,122,122,0,0,1,26.09,16.52c8.65,7,6.14,12,13.25,17s7.93,2.34,15.69,4.12,10.12,3.17,12.92,4.77a35.71,35.71,0,0,1,10.32,8.9,28,28,0,0,1,4.11,8.32" transform="translate(-19.68 -17.43)"/><path class="cls-2" d="M1352.39,854.66c0,.17,0,.33,0,.5" transform="translate(-19.68 -17.43)"/></g><g id="DASHED-2" data-name="DASHED"><path class="cls-2" d="M917.44,451.13l.23.45" transform="translate(-19.68 -17.43)"/><path class="cls-4" d="M920.82,464.28c.14,1.57.2,3,.23,4.3.09,4.67-2.29,37-4,41.78s-8.43,14.16-9.9,22.65c-1.09,6.26,2.52,13.53,4.4,20.3" transform="translate(-19.68 -17.43)"/><path class="cls-2" d="M912.58,559.78c0,.17,0,.33,0,.5" transform="translate(-19.68 -17.43)"/></g><g id="DASHED-3" data-name="DASHED"><path class="cls-2" d="M837.82,224.28l.5,0" transform="translate(-19.68 -17.43)"/><path class="cls-5" d="M852.21,224.84A80.86,80.86,0,0,1,861,226c14.51,3.17,17.2,17.69,17.11,24.66s-.08,8.4-.92,11.67-3,8.59-4,17,1.76,12.3.59,18.95-11.39,15.2-22.4,16.37-13.19.67-24.66,1.34-18.11,3.69-27.77,23.74S787.58,362,783,365.05c-6.29,4.35-13.73,3.21-24.66,5s-18.89,7.68-25.17,11.66S718.3,390,709,391.23s-15.43,1.83-21,4.87a84.37,84.37,0,0,1-20.13,8c-7.18,1.68-13.32,10-15.27,16.11s-3.64,15.26-15.78,22.4-11.43,13.86-11.57,21,5.88,14.74,11.24,19.72c8.71,7.9,11.48,9.11,26.85,5.78s18.37-7,21.47-19.21,7.49-18.81,10.74-22.82,8.45-10.87,16.11-13.92,7.21,1.21,14.76-2.18,24.89-14.1,30.88-18.8,12.5-6.21,20.13-6.71,18.28-1.4,31,7.64,7.76,25.32,3.52,30.78-7.85,12.46-8.14,24.25,3.17,14.49,10.24,20,19.16,3.06,26.51-2.18S851,472.78,851.75,465.9a93.82,93.82,0,0,0,.07-12.19" transform="translate(-19.68 -17.43)"/><path class="cls-2" d="M852,446.76c0-.16,0-.33.05-.49" transform="translate(-19.68 -17.43)"/></g><g id="DASHED-4" data-name="DASHED"><path class="cls-2" d="M255.18,710.19c0,.15.11.31.17.47" transform="translate(-19.68 -17.43)"/><path class="cls-6" d="M261,723.39c1.36,3.47,2.43,6.93,2.46,9.62.74,9.48-3.94,19.09-4.11,26.85s10.54,17.19,18.79,21.47,20,20.34,24.16,25.51,9.51,16.68,12.08,20.13,8.19,6.79,12.08,8.06,19,4.19,25.5-1.35c4.36-3.67,13.46-18.93,14.77-22.82s.71-12.58,2.68-17.45,12.73-18.75,13.43-24.16c1.53-7.08-2.64-17-5.37-21.47S364.51,728.09,360,719.59s-1-19.72,2.68-24.16,9.79-9.53,13.43-17.45,2.64-20.47,0-25.51c-5.16-9.63-3.67-33.21-6.72-40.26s-13.93-27.58-22.81-33.56c-5.36-4.07-9.35-6.53-13.43-10.74-7-6.73-5.43-14.45-12.08-21.48a37.78,37.78,0,0,0-20.13-10.73,35.4,35.4,0,0,1-20.14-12.09c-4.9-5.56-11-9.23-13.42-17.45s-9.9-17-22.82-18.28c-13.88-.81-23.23-3.48-32.79-2.35s-18.09,4.34-24.93,5.87-19.39,4.88-26.84,1.34c-8.88-4-18.78-3.46-29.53-2.68s-15.8-3.42-24.58-10.74-13.56-11.49-17-16.11c-8.93-12.57-.13-29.74,13.42-32.21,35.86-4.23,40.88-13.44,48.65-25.51,4.79-8,9.15-13.71,9.9-16.1,3.69-9.94-4-23.59-5.78-29.53C149.68,347.7,146.85,321.1,144,317s-28-25.91-32.64-35.32-4.18-20.34,1.68-27.86,26.15-25,30.87-28.18c5.47-4,14.36-4.54,22.31-3.18" transform="translate(-19.68 -17.43)"/><path class="cls-2" d="M172.92,224.12l.47.16" transform="translate(-19.68 -17.43)"/></g><g id="DASHED-5" data-name="DASHED"><path class="cls-2" d="M219,971.94l-.11-.49" transform="translate(-19.68 -17.43)"/><path class="cls-7" d="M216.56,957.84c-.13-1.25-.22-2.41-.22-3.35,0-5.37,4.39-12.69,5.37-21.48s3.31-29,4-33.55a36.39,36.39,0,0,1,2.68-9.4c1-2.27,6.77-9.33,8.06-12.08a19,19,0,0,0,1.34-8.05c0-1.82-.71-8.12-2.68-12.09a123.49,123.49,0,0,0-9.4-14.76c-10.17-10.14-17.7-7.21-30.87-4-7.77,1.43-15.51-2.11-21.48-5.37s-13.61-9.6-18.79-12.08-19.86-5.84-25.51-9.39-15.7-12.16-22.81-14.77-12.56-2.19-18.8,0c-11.76,4.51-23.77,4.11-32.21-1.34-8.15-5.28-16.24-21.77-21.49-34.7" transform="translate(-19.68 -17.43)"/><path class="cls-2" d="M31.28,755c-.06-.16-.12-.32-.17-.47" transform="translate(-19.68 -17.43)"/></g></g><g id="Layer_3" data-name="Layer 3"><line class="cls-8" x1="219.82" y1="901.07" x2="188.82" y2="897.07"/><line class="cls-8" x1="1304.38" y1="792.58" x2="1300.26" y2="823.56"/><line class="cls-9" x1="371.35" y1="731.79" x2="351.16" y2="741.81"/><line class="cls-9" x1="202.2" y1="235.12" x2="180.3" y2="240.48"/><line class="cls-9" x1="716.42" y1="172.33" x2="708.09" y2="193.27"/><line class="cls-9" x1="809.56" y1="462.15" x2="816.94" y2="483.45"/><path class="cls-10" d="M121.57,920a9.69,9.69,0,0,1-3.1-.45,6.35,6.35,0,0,1-2.16-1.2,2.12,2.12,0,0,1-.93-1.72,1.42,1.42,0,0,1,.33-.89,1.21,1.21,0,0,1,1-.42,1.86,1.86,0,0,1,1,.26,4.45,4.45,0,0,1,.77.62,5.11,5.11,0,0,0,1.27,1,3.75,3.75,0,0,0,1.87.42,4.25,4.25,0,0,0,1.41-.23,2.29,2.29,0,0,0,1-.64,1.51,1.51,0,0,0-.48-2.36,10.88,10.88,0,0,0-2.55-.87,9,9,0,0,1-4.06-1.84,3.82,3.82,0,0,1-1.28-2.91,3.15,3.15,0,0,1,.8-2.15,5.18,5.18,0,0,1,2.18-1.38,9,9,0,0,1,3.08-.49,8.57,8.57,0,0,1,2.6.39,5.44,5.44,0,0,1,2,1.12,2.73,2.73,0,0,1,.66.7,1.59,1.59,0,0,1,.25.89,1.24,1.24,0,0,1-.36.94,1.33,1.33,0,0,1-.94.34,1.68,1.68,0,0,1-1-.3,5.28,5.28,0,0,1-.69-.59,2.93,2.93,0,0,0-1.06-.78,3.87,3.87,0,0,0-1.64-.32,4.06,4.06,0,0,0-1.29.2,2.16,2.16,0,0,0-.91.55,1.15,1.15,0,0,0-.34.83,1.45,1.45,0,0,0,.82,1.26,9.87,9.87,0,0,0,2.5.93,16,16,0,0,1,2.87,1,5.17,5.17,0,0,1,1.89,1.45,3.52,3.52,0,0,1,.67,2.18,3.67,3.67,0,0,1-.81,2.38,5.16,5.16,0,0,1-2.2,1.55A9,9,0,0,1,121.57,920Z" transform="translate(-19.68 -17.43)"/><path class="cls-10" d="M140.72,904.93c1.27,0,1.91.39,1.91,1.18a1.05,1.05,0,0,1-.4.89,2,2,0,0,1-1.18.3h-3v10.77c0,1.27-.55,1.9-1.66,1.9s-1.64-.63-1.64-1.9V907.3h-2.65a2.75,2.75,0,0,1-1.42-.3,1,1,0,0,1,0-1.77,2.75,2.75,0,0,1,1.42-.3Z" transform="translate(-19.68 -17.43)"/><path class="cls-10" d="M146.29,920a1.52,1.52,0,0,1-1.07-.37,1.37,1.37,0,0,1-.41-1.06,1.82,1.82,0,0,1,0-.32,2.83,2.83,0,0,1,.07-.36l3.55-11.13a2.8,2.8,0,0,1,.85-1.35,2.11,2.11,0,0,1,1.4-.53h1.1a2.09,2.09,0,0,1,1.4.53,2.78,2.78,0,0,1,.84,1.35l3.56,11.13a3,3,0,0,1,.08.36,1.77,1.77,0,0,1,0,.32,1.37,1.37,0,0,1-.4,1.06,1.56,1.56,0,0,1-1.08.37,1.62,1.62,0,0,1-1.23-.42,2.84,2.84,0,0,1-.6-1.27l-.67-2.09H148.8l-.67,2.09a2.74,2.74,0,0,1-.61,1.27A1.64,1.64,0,0,1,146.29,920Zm4.78-12-1.7,5.79h3.78l-1.69-5.79Z" transform="translate(-19.68 -17.43)"/><path class="cls-10" d="M160.55,918.07V906.82a1.67,1.67,0,0,1,1.9-1.89h4.42a10.07,10.07,0,0,1,1.68.15,5,5,0,0,1,1.67.59,3.51,3.51,0,0,1,1.27,1.27,4.27,4.27,0,0,1,.49,2.2,4.11,4.11,0,0,1-.69,2.48,4.21,4.21,0,0,1-1.67,1.37l2,4.74a3,3,0,0,1,.18.5,1.94,1.94,0,0,1,.06.46,1.21,1.21,0,0,1-.39.94,1.63,1.63,0,0,1-1.12.34,1.61,1.61,0,0,1-1.27-.43,4,4,0,0,1-.69-1.25l-1.87-4.52h-2.72v4.3c0,1.27-.56,1.9-1.66,1.9S160.55,919.34,160.55,918.07Zm3.3-10.77v4.09h2.49a2.51,2.51,0,0,0,1.73-.53,2,2,0,0,0,.6-1.55,1.84,1.84,0,0,0-.61-1.52,2.79,2.79,0,0,0-1.77-.49Z" transform="translate(-19.68 -17.43)"/><path class="cls-10" d="M185.29,904.93c1.27,0,1.91.39,1.91,1.18a1.08,1.08,0,0,1-.4.89,2,2,0,0,1-1.19.3h-3v10.77c0,1.27-.56,1.9-1.66,1.9s-1.64-.63-1.64-1.9V907.3h-2.66a2.71,2.71,0,0,1-1.41-.3,1,1,0,0,1,0-1.77,2.71,2.71,0,0,1,1.41-.3Z" transform="translate(-19.68 -17.43)"/><path class="cls-10" d="M1254.28,860.11a1,1,0,0,1-.48.89,2.75,2.75,0,0,1-1.42.3h-5.06v5h4.38c1.07,0,1.61.4,1.61,1.2s-.54,1.19-1.61,1.19h-4.38v3.41c0,1.27-.55,1.9-1.64,1.9s-1.66-.63-1.66-1.9V860.82a1.68,1.68,0,0,1,1.91-1.89h6.45a2.75,2.75,0,0,1,1.42.3A1,1,0,0,1,1254.28,860.11Z" transform="translate(-19.68 -17.43)"/><path class="cls-10" d="M1259.68,873.78a2.31,2.31,0,0,1-1.3-.3,1.11,1.11,0,0,1,0-1.77,2.31,2.31,0,0,1,1.3-.3h2.13V861.3h-2.13a2.31,2.31,0,0,1-1.3-.3,1.11,1.11,0,0,1,0-1.77,2.31,2.31,0,0,1,1.3-.3H1267a2.33,2.33,0,0,1,1.31.3,1.13,1.13,0,0,1,0,1.77,2.33,2.33,0,0,1-1.31.3H1265v10.11H1267a2.33,2.33,0,0,1,1.31.3,1.13,1.13,0,0,1,0,1.77,2.33,2.33,0,0,1-1.31.3Z" transform="translate(-19.68 -17.43)"/><path class="cls-10" d="M1273.91,873.87c-1,0-1.51-.64-1.51-1.9V860.86a1.85,1.85,0,0,1,.6-1.47,2.28,2.28,0,0,1,1.53-.51h.08a2.68,2.68,0,0,1,1.49.42,2.77,2.77,0,0,1,1,1.23l4,8.37v-8.14c0-1.25.51-1.88,1.53-1.88a1.42,1.42,0,0,1,1.13.48,2.14,2.14,0,0,1,.4,1.4V872a1.76,1.76,0,0,1-.56,1.41,2.17,2.17,0,0,1-1.48.5H1282a2.45,2.45,0,0,1-1.44-.43,2.88,2.88,0,0,1-1-1.23l-4.17-8.7V872C1275.43,873.23,1274.92,873.87,1273.91,873.87Z" transform="translate(-19.68 -17.43)"/><path class="cls-10" d="M1289.39,873.78a2.31,2.31,0,0,1-1.3-.3,1.11,1.11,0,0,1,0-1.77,2.31,2.31,0,0,1,1.3-.3h2.13V861.3h-2.13a2.31,2.31,0,0,1-1.3-.3,1.11,1.11,0,0,1,0-1.77,2.31,2.31,0,0,1,1.3-.3h7.36a2.33,2.33,0,0,1,1.31.3,1.13,1.13,0,0,1,0,1.77,2.33,2.33,0,0,1-1.31.3h-2.09v10.11h2.09a2.33,2.33,0,0,1,1.31.3,1.13,1.13,0,0,1,0,1.77,2.33,2.33,0,0,1-1.31.3Z" transform="translate(-19.68 -17.43)"/><path class="cls-10" d="M1308,874a9.74,9.74,0,0,1-3.1-.45,6.2,6.2,0,0,1-2.15-1.2,2.1,2.1,0,0,1-.94-1.72,1.42,1.42,0,0,1,.33-.89,1.21,1.21,0,0,1,1-.42,1.83,1.83,0,0,1,1,.26,4.45,4.45,0,0,1,.77.62,5.3,5.3,0,0,0,1.27,1,3.78,3.78,0,0,0,1.87.42,4.21,4.21,0,0,0,1.41-.23,2.29,2.29,0,0,0,1-.64,1.41,1.41,0,0,0,.38-1,1.45,1.45,0,0,0-.86-1.35,10.88,10.88,0,0,0-2.55-.87,9,9,0,0,1-4.06-1.84,3.82,3.82,0,0,1-1.28-2.91,3.11,3.11,0,0,1,.81-2.15,5.05,5.05,0,0,1,2.18-1.38,9,9,0,0,1,3.07-.49,8.52,8.52,0,0,1,2.6.39,5.44,5.44,0,0,1,2,1.12,2.42,2.42,0,0,1,.66.7,1.6,1.6,0,0,1,.26.89,1.21,1.21,0,0,1-.37.94,1.31,1.31,0,0,1-.94.34,1.65,1.65,0,0,1-1-.3,4.22,4.22,0,0,1-.69-.59,3,3,0,0,0-1.06-.78,3.9,3.9,0,0,0-1.64-.32,4,4,0,0,0-1.29.2,2.13,2.13,0,0,0-.92.55,1.15,1.15,0,0,0-.34.83,1.46,1.46,0,0,0,.82,1.26,10,10,0,0,0,2.51.93,16.22,16.22,0,0,1,2.87,1,5.21,5.21,0,0,1,1.88,1.45,3.45,3.45,0,0,1,.67,2.18,3.72,3.72,0,0,1-.8,2.38,5.25,5.25,0,0,1-2.21,1.55A9,9,0,0,1,1308,874Z" transform="translate(-19.68 -17.43)"/><path class="cls-10" d="M1325.45,860.71c0-1.27.56-1.9,1.66-1.9s1.64.63,1.64,1.9v11.36c0,1.27-.54,1.9-1.64,1.9s-1.66-.63-1.66-1.9V867.4h-5.26v4.67c0,1.27-.55,1.9-1.65,1.9s-1.66-.63-1.66-1.9V860.71a2.12,2.12,0,0,1,.43-1.41,1.53,1.53,0,0,1,1.23-.49c1.1,0,1.65.63,1.65,1.9V865h5.26Z" transform="translate(-19.68 -17.43)"/><path class="cls-10" d="M408.29,745.78a1.5,1.5,0,0,1-.75-.15.52.52,0,0,1-.24-.46q0-.6,1-.6h2.18v-8.9a2.71,2.71,0,0,1-1.07.63,4.15,4.15,0,0,1-1.29.21,1,1,0,0,1-.34-.06.53.53,0,0,1-.29-.19.54.54,0,0,1-.11-.35.49.49,0,0,1,.12-.36.59.59,0,0,1,.29-.19,1.44,1.44,0,0,1,.36-.07,3.28,3.28,0,0,0,1.34-.28,2.43,2.43,0,0,0,.93-.7,1.29,1.29,0,0,1,.37-.27,1.17,1.17,0,0,1,.48-.09.65.65,0,0,1,.58.25,1.51,1.51,0,0,1,.17.8v9.57h2.14c.65,0,1,.2,1,.6a.52.52,0,0,1-.24.46,1.46,1.46,0,0,1-.74.15Z" transform="translate(-19.68 -17.43)"/><path class="cls-10" d="M419.91,746c-.53,0-.8-.33-.8-1V734.92a1.13,1.13,0,0,1,.21-.74.72.72,0,0,1,.59-.25q.81,0,.81,1v4.41l4.33-4.75a2.72,2.72,0,0,1,.49-.48.93.93,0,0,1,.58-.17.68.68,0,0,1,.5.16.57.57,0,0,1,.16.43.64.64,0,0,1-.06.28,1.31,1.31,0,0,1-.18.28l-3.86,4.17-.42.45a.25.25,0,1,0,0,.5l.44.49,3.84,4.1a1,1,0,0,1,.18.28,1,1,0,0,1,0,.3.54.54,0,0,1-.19.43.81.81,0,0,1-.54.16,1,1,0,0,1-.54-.14,2.57,2.57,0,0,1-.46-.47l-4.32-4.77V745Q420.72,746,419.91,746Z" transform="translate(-19.68 -17.43)"/><path class="cls-10" d="M430.29,745.88a.75.75,0,0,1-.57-.23.9.9,0,0,1-.21-.64c0-.1,0-.34.05-.73s.09-.88.16-1.45.13-1.2.2-1.87l.24-2c.08-.67.16-1.3.23-1.88s.13-1.08.18-1.48.08-.65.1-.76a1.43,1.43,0,0,1,.18-.55.86.86,0,0,1,.36-.32,1.27,1.27,0,0,1,.54-.11h.05a1.15,1.15,0,0,1,.74.23,1.29,1.29,0,0,1,.38.69l1.68,6.91,1.68-6.91a1.17,1.17,0,0,1,.39-.69,1.13,1.13,0,0,1,.74-.23h0a1.27,1.27,0,0,1,.54.11.9.9,0,0,1,.37.33,1.19,1.19,0,0,1,.17.54c0,.11.05.37.1.77s.11.9.18,1.49.14,1.22.22,1.9l.24,2c.08.67.15,1.3.21,1.87s.11,1,.14,1.43.06.62.06.7a.94.94,0,0,1-.19.64.68.68,0,0,1-.54.23c-.51,0-.8-.33-.86-1l-.76-8.17-1.74,6.59a1.19,1.19,0,0,1-.38.68,1,1,0,0,1-1.23,0,1.25,1.25,0,0,1-.38-.68l-1.72-6.63-.8,8.21a1.43,1.43,0,0,1-.22.73A.65.65,0,0,1,430.29,745.88Z" transform="translate(-19.68 -17.43)"/><path class="cls-10" d="M242.53,244.11a4,4,0,0,1-.45,1.74,9.76,9.76,0,0,1-1.13,1.8,18.32,18.32,0,0,1-1.46,1.68c-.52.52-1,1-1.44,1.37s-.79.68-1,.87h4.83a1.33,1.33,0,0,1,.74.16.49.49,0,0,1,.25.44.51.51,0,0,1-.25.46,1.44,1.44,0,0,1-.74.15H236a1.14,1.14,0,0,1-.73-.19.67.67,0,0,1-.23-.53.75.75,0,0,1,.16-.5,3.82,3.82,0,0,1,.49-.46c.33-.28.73-.62,1.19-1s.93-.87,1.41-1.37a19.3,19.3,0,0,0,1.33-1.54,9.06,9.06,0,0,0,1-1.57,3.37,3.37,0,0,0,.38-1.45,2,2,0,0,0-.55-1.5,2.05,2.05,0,0,0-1.49-.53,2.82,2.82,0,0,0-1.4.35,3.43,3.43,0,0,0-1,.78,2.2,2.2,0,0,1-.39.32.71.71,0,0,1-.41.13.72.72,0,0,1-.46-.18.56.56,0,0,1-.21-.44,1,1,0,0,1,.44-.77,4.35,4.35,0,0,1,1.44-1,4.66,4.66,0,0,1,2-.41,3.93,3.93,0,0,1,2.62.81A3,3,0,0,1,242.53,244.11Z" transform="translate(-19.68 -17.43)"/><path class="cls-10" d="M247.91,253c-.53,0-.8-.33-.8-1V241.92a1.13,1.13,0,0,1,.21-.74.72.72,0,0,1,.59-.25q.81,0,.81,1v4.41l4.33-4.75a2.72,2.72,0,0,1,.49-.48.93.93,0,0,1,.58-.17.68.68,0,0,1,.5.16.57.57,0,0,1,.16.43.64.64,0,0,1-.06.28,1.31,1.31,0,0,1-.18.28l-3.86,4.17-.42.45a1.77,1.77,0,0,1-.27.25,1.77,1.77,0,0,1,.27.25l.44.49,3.84,4.1a1,1,0,0,1,.18.28,1,1,0,0,1,.05.3.54.54,0,0,1-.19.43.81.81,0,0,1-.54.16,1,1,0,0,1-.54-.14,2.57,2.57,0,0,1-.46-.47l-4.32-4.77V252Q248.72,253,247.91,253Z" transform="translate(-19.68 -17.43)"/><path class="cls-10" d="M258.29,252.88a.75.75,0,0,1-.57-.23.9.9,0,0,1-.21-.64c0-.1,0-.34.05-.73s.09-.88.16-1.45.13-1.2.2-1.87l.24-2c.08-.67.16-1.3.23-1.88s.13-1.08.18-1.48.08-.65.1-.76a1.43,1.43,0,0,1,.18-.55.86.86,0,0,1,.36-.32,1.27,1.27,0,0,1,.54-.11h.05a1.15,1.15,0,0,1,.74.23,1.29,1.29,0,0,1,.38.69l1.68,6.91,1.68-6.91a1.17,1.17,0,0,1,.39-.69,1.13,1.13,0,0,1,.74-.23h0a1.27,1.27,0,0,1,.54.11.9.9,0,0,1,.37.33,1.19,1.19,0,0,1,.17.54c0,.11.05.37.1.77s.11.9.18,1.49.14,1.22.22,1.9l.24,2c.08.67.15,1.3.21,1.87s.11,1.05.14,1.43.06.62.06.7a.94.94,0,0,1-.19.64.68.68,0,0,1-.54.23c-.51,0-.8-.33-.86-1l-.76-8.17-1.74,6.59a1.19,1.19,0,0,1-.38.68,1,1,0,0,1-1.23,0,1.25,1.25,0,0,1-.38-.68l-1.72-6.63-.8,8.21a1.43,1.43,0,0,1-.22.73A.65.65,0,0,1,258.29,252.88Z" transform="translate(-19.68 -17.43)"/><path class="cls-10" d="M706.14,235a.6.6,0,0,1,.2-.46.64.64,0,0,1,.44-.18.78.78,0,0,1,.41.12,1.65,1.65,0,0,1,.4.32,3.13,3.13,0,0,0,.93.69,3.19,3.19,0,0,0,1.37.28,3,3,0,0,0,1.22-.26,2.26,2.26,0,0,0,.95-.75,2.1,2.1,0,0,0,.36-1.25,1.67,1.67,0,0,0-.42-1.16,2.84,2.84,0,0,0-1.12-.71,4.33,4.33,0,0,0-1.45-.25,1,1,0,0,1-.49-.18.58.58,0,0,1,0-.88,1.09,1.09,0,0,1,.49-.16,3.82,3.82,0,0,0,1.39-.27,2.28,2.28,0,0,0,1-.73,1.83,1.83,0,0,0,.37-1.16,1.75,1.75,0,0,0-.34-1.09,1.93,1.93,0,0,0-.87-.63,3,3,0,0,0-1.11-.21,2.87,2.87,0,0,0-1.22.28,2.91,2.91,0,0,0-1,.7,2.67,2.67,0,0,1-.38.34.65.65,0,0,1-.39.12.56.56,0,0,1-.44-.19.64.64,0,0,1-.17-.45,1,1,0,0,1,.4-.72,4.2,4.2,0,0,1,1.27-.89,4.31,4.31,0,0,1,1.89-.39,5.6,5.6,0,0,1,1.87.31,3.44,3.44,0,0,1,1.45,1,2.59,2.59,0,0,1,.56,1.71,2.75,2.75,0,0,1-1.29,2.38,3.67,3.67,0,0,1-1.23.5,5.23,5.23,0,0,1,1.34.48,2.8,2.8,0,0,1,1,.9,2.42,2.42,0,0,1,.4,1.44,3,3,0,0,1-.56,1.84,3.55,3.55,0,0,1-1.49,1.17,5,5,0,0,1-2,.4,4.74,4.74,0,0,1-1.95-.37,5.23,5.23,0,0,1-1.42-.9,1.15,1.15,0,0,1-.31-.37A.79.79,0,0,1,706.14,235Z" transform="translate(-19.68 -17.43)"/><path class="cls-10" d="M718.91,237c-.53,0-.8-.33-.8-1V225.92a1.13,1.13,0,0,1,.21-.74.72.72,0,0,1,.59-.25q.81,0,.81,1v4.41l4.33-4.75a2.72,2.72,0,0,1,.49-.48.93.93,0,0,1,.58-.17.68.68,0,0,1,.5.16.57.57,0,0,1,.16.43.64.64,0,0,1-.06.28,1.31,1.31,0,0,1-.18.28l-3.86,4.17-.42.45a1.77,1.77,0,0,1-.27.25,1.77,1.77,0,0,1,.27.25l.44.49,3.84,4.1a1,1,0,0,1,.18.28,1,1,0,0,1,0,.3.54.54,0,0,1-.19.43.81.81,0,0,1-.54.16,1,1,0,0,1-.54-.14,2.57,2.57,0,0,1-.46-.47l-4.32-4.77V236Q719.72,237,718.91,237Z" transform="translate(-19.68 -17.43)"/><path class="cls-10" d="M729.29,236.88a.75.75,0,0,1-.57-.23.9.9,0,0,1-.21-.64c0-.1,0-.34,0-.73s.09-.88.16-1.45.13-1.2.2-1.87l.24-2c.08-.67.16-1.3.23-1.88s.13-1.08.18-1.48.08-.65.1-.76a1.43,1.43,0,0,1,.18-.55.86.86,0,0,1,.36-.32,1.27,1.27,0,0,1,.54-.11h0a1.15,1.15,0,0,1,.74.23,1.29,1.29,0,0,1,.38.69l1.68,6.91,1.68-6.91a1.17,1.17,0,0,1,.39-.69,1.13,1.13,0,0,1,.74-.23h0a1.27,1.27,0,0,1,.54.11.9.9,0,0,1,.37.33,1.19,1.19,0,0,1,.17.54c0,.11.05.37.1.77s.11.9.18,1.49.14,1.22.22,1.9l.24,2c.08.67.15,1.3.21,1.87s.11,1.05.14,1.43.06.62.06.7a.94.94,0,0,1-.19.64.68.68,0,0,1-.54.23c-.51,0-.8-.33-.86-1l-.76-8.17-1.74,6.59a1.19,1.19,0,0,1-.38.68,1,1,0,0,1-1.23,0,1.25,1.25,0,0,1-.38-.68l-1.72-6.63-.8,8.21a1.43,1.43,0,0,1-.22.73A.65.65,0,0,1,729.29,236.88Z" transform="translate(-19.68 -17.43)"/><path class="cls-10" d="M835.73,525a.73.73,0,0,1-.58-.24,1.11,1.11,0,0,1-.21-.76v-2.63h-4.49a1.15,1.15,0,0,1-.76-.21.68.68,0,0,1-.24-.56,1.62,1.62,0,0,1,.06-.4q.06-.24.12-.45l2.29-6.21a.88.88,0,0,1,.31-.46.82.82,0,0,1,.45-.14.63.63,0,0,1,.64.68c0,.06,0,.12,0,.17a1.62,1.62,0,0,1,0,.19L831,520.14H835v-5.81a1,1,0,0,1,.11-.48.64.64,0,0,1,.29-.25.71.71,0,0,1,.34-.08.72.72,0,0,1,.35.08.62.62,0,0,1,.28.25.85.85,0,0,1,.11.48v5.81h1.13a1.14,1.14,0,0,1,.64.15.56.56,0,0,1,.22.46.52.52,0,0,1-.22.44,1.14,1.14,0,0,1-.64.15h-1.13V524a1.12,1.12,0,0,1-.2.76A.62.62,0,0,1,835.73,525Z" transform="translate(-19.68 -17.43)"/><path class="cls-10" d="M842.91,525c-.53,0-.8-.33-.8-1V513.92a1.13,1.13,0,0,1,.21-.74.72.72,0,0,1,.59-.25q.81,0,.81,1v4.41l4.33-4.75a2.72,2.72,0,0,1,.49-.48.93.93,0,0,1,.58-.17.68.68,0,0,1,.5.16.57.57,0,0,1,.16.43.64.64,0,0,1-.06.28,1.31,1.31,0,0,1-.18.28l-3.86,4.17-.42.45a.25.25,0,1,0,0,.5l.44.49,3.84,4.1a1,1,0,0,1,.18.28,1,1,0,0,1,0,.3.54.54,0,0,1-.19.43.81.81,0,0,1-.54.16,1,1,0,0,1-.54-.14,2.57,2.57,0,0,1-.46-.47l-4.32-4.77V524Q843.72,525,842.91,525Z" transform="translate(-19.68 -17.43)"/><path class="cls-10" d="M853.29,524.88a.75.75,0,0,1-.57-.23.9.9,0,0,1-.21-.64c0-.1,0-.34,0-.73s.09-.88.16-1.45.13-1.2.2-1.87l.24-2c.08-.67.16-1.3.23-1.88s.13-1.08.18-1.48.08-.65.1-.76a1.43,1.43,0,0,1,.18-.55.86.86,0,0,1,.36-.32,1.27,1.27,0,0,1,.54-.11h0a1.15,1.15,0,0,1,.74.23,1.29,1.29,0,0,1,.38.69l1.68,6.91,1.68-6.91a1.17,1.17,0,0,1,.39-.69,1.13,1.13,0,0,1,.74-.23h0a1.27,1.27,0,0,1,.54.11.9.9,0,0,1,.37.33,1.19,1.19,0,0,1,.17.54c0,.11.05.37.1.77s.11.9.18,1.49.14,1.22.22,1.9l.24,2c.08.67.15,1.3.21,1.87s.11,1,.14,1.43.06.62.06.7a.94.94,0,0,1-.19.64.68.68,0,0,1-.54.23c-.51,0-.8-.33-.86-1l-.76-8.17-1.74,6.59a1.19,1.19,0,0,1-.38.68,1,1,0,0,1-1.23,0,1.25,1.25,0,0,1-.38-.68l-1.72-6.63-.8,8.21a1.43,1.43,0,0,1-.22.73A.65.65,0,0,1,853.29,524.88Z" transform="translate(-19.68 -17.43)"/></g></svg>