<?xml version="1.0" encoding="utf-8"?>
<!-- Generator: Adobe Illustrator 23.0.3, SVG Export Plug-In . SVG Version: 6.00 Build 0)  -->
<svg version="1.1" id="Layer_1" xmlns="http://www.w3.org/2000/svg" xmlns:xlink="http://www.w3.org/1999/xlink" x="0px" y="0px"
	 viewBox="0 0 24 24" style="enable-background:new 0 0 24 24;" xml:space="preserve">
<style type="text/css">
	.st0{fill:#F4F2ED;}
</style>
<path class="st0" d="M12.1,1.7C6.4,1.7,1.8,6.3,1.8,12c0,5.7,4.6,10.3,10.3,10.3c5.7,0,10.3-4.6,10.3-10.3
	C22.3,6.3,17.7,1.7,12.1,1.7z M12.1,21c-5,0-9-4-9-9c0-5,4-9,9-9s9,4.1,9,9C21.1,17,17.1,21,12.1,21z"/>
<g>
	<path class="st0" d="M8.3,18.2V5.9h4.6c0.9,0,1.7,0.2,2.4,0.5s1.1,0.8,1.5,1.4c0.3,0.6,0.5,1.3,0.5,2.1c0,0.8-0.2,1.5-0.5,2.1
		c-0.3,0.6-0.8,1.1-1.5,1.4s-1.4,0.5-2.4,0.5h-3v-1.8h2.7c0.6,0,1-0.1,1.4-0.3c0.3-0.2,0.6-0.5,0.8-0.8c0.2-0.3,0.3-0.7,0.3-1.2
		c0-0.4-0.1-0.8-0.3-1.1c-0.2-0.3-0.4-0.6-0.8-0.8c-0.4-0.2-0.8-0.3-1.4-0.3h-2v10.4H8.3z"/>
</g>
</svg>
