<?xml version="1.0" encoding="utf-8"?>
<!-- Generator: Adobe Illustrator 23.0.3, SVG Export Plug-In . SVG Version: 6.00 Build 0)  -->
<svg version="1.1" id="Layer_1" xmlns="http://www.w3.org/2000/svg" xmlns:xlink="http://www.w3.org/1999/xlink" x="0px" y="0px"
	 viewBox="0 0 16.1 16.1" style="enable-background:new 0 0 16.1 16.1;" xml:space="preserve">
<style type="text/css">
	.st0{fill:#FFFFFF;}
</style>
<title>v_config_2</title>
<g>
	<g id="Layer_1-2">
		<path class="st0" d="M9.2,1.7C5.6,1.1,2.3,3.4,1.6,6.9s1.7,6.9,5.3,7.5c3.5,0.6,6.9-1.7,7.5-5.3c0.1-0.7,0.1-1.5,0-2.2
			C14,4.3,11.9,2.2,9.2,1.7z M9,6.6H7.2c-0.3,0-0.5,0.1-0.7,0.2l0,0C6.2,7.1,5.8,7.2,5.4,7.2H3.9C3.6,7.2,3.3,7,3.3,6.7
			c0-0.1,0-0.1,0-0.2c0.9-2.6,3.7-4,6.3-3.2c1.5,0.5,2.6,1.6,3.2,3.1c0.1,0.3-0.1,0.6-0.3,0.7c-0.1,0-0.1,0-0.2,0h-1.4
			c-0.4,0-0.8-0.1-1.1-0.4l0,0C9.5,6.7,9.3,6.6,9,6.6z M3.9,8.9L5.5,9C6,9,6.4,9.2,6.6,9.5l0.5,0.7c0.1,0.2,0.2,0.3,0.2,0.5l0.1,1.5
			c0,0.3-0.2,0.6-0.5,0.6c-0.1,0-0.1,0-0.2,0c-1.6-0.5-2.8-1.7-3.4-3.2C3.2,9.4,3.4,9,3.7,8.9C3.7,8.9,3.8,8.9,3.9,8.9z M8.8,12.3
			L8.9,11c0-0.2,0.1-0.5,0.2-0.7l0.5-0.8c0.2-0.3,0.5-0.5,0.9-0.5l1.7-0.1c0.3,0,0.6,0.2,0.6,0.5c0,0.1,0,0.1,0,0.2
			c-0.5,1.5-1.7,2.7-3.3,3.2c-0.3,0.1-0.6-0.1-0.7-0.3C8.8,12.4,8.8,12.3,8.8,12.3z"/>
	</g>
</g>
</svg>
