<?xml version="1.0" encoding="utf-8"?>
<!-- Generator: Adobe Illustrator 23.0.3, SVG Export Plug-In . SVG Version: 6.00 Build 0)  -->
<svg version="1.1" id="Layer_1" xmlns="http://www.w3.org/2000/svg" xmlns:xlink="http://www.w3.org/1999/xlink" x="0px" y="0px"
	 viewBox="0 0 24 24" style="enable-background:new 0 0 24 24;" xml:space="preserve">
<style type="text/css">
	.st0{fill:#F3F2ED;}
	.st1{fill:none;stroke:#F3F2ED;stroke-width:1.25;stroke-miterlimit:10;}
</style>
<g>
	<g id="Layer_1-2">
		<path class="st0" d="M13.4,9.5h-2.6c-0.4,0-0.7,0.1-1,0.3l0,0c-0.4,0.4-1,0.6-1.6,0.6H6.1c-0.4,0-0.9-0.3-0.9-0.7
			c0-0.1,0-0.1,0-0.3c1.3-3.8,5.3-5.8,9.1-4.6c2.2,0.7,3.8,2.3,4.6,4.5c0.1,0.4-0.1,0.9-0.4,1c-0.1,0-0.1,0-0.3,0h-2
			c-0.6,0-1.2-0.1-1.6-0.6l0,0C14.1,9.7,13.8,9.5,13.4,9.5z M11.3,20.8c4.8,0.5,9-2.7,9.9-7.7c0.1-1,0.1-2.2,0-3.2
			c-0.6-3.8-3.6-6.8-7.5-7.5c-5.2-0.9-10,2.5-11,7.5c-0.3,1.6-0.2,3.2,0.3,4.7c0.8-1.1,1.4-1.9,3.2-2.1s2.8,0.3,3.7,1.1
			c0.8,0.8,1.4,2.5,1.4,3.8C11.4,18.8,11.3,18.8,11.3,20.8z M13.1,17.7l0.1-1.9c0-0.3,0.1-0.7,0.3-1l0.7-1.2
			c0.3-0.4,0.7-0.7,1.3-0.7l2.5-0.1c0.4,0,0.9,0.3,0.9,0.7c0,0.1,0,0.1,0,0.3c-0.7,2.2-2.5,3.9-4.8,4.6c-0.4,0.1-0.9-0.1-1-0.4
			C13.1,17.9,13.1,17.7,13.1,17.7z"/>
	</g>
</g>
<path class="st0" d="M9.3,22.8H4.3c-0.4,0-0.8-0.3-0.8-0.8v-3.6c0-0.4,0.3-0.8,0.8-0.8h5.1c0.4,0,0.8,0.3,0.8,0.8v3.6
	C10.1,22.5,9.7,22.8,9.3,22.8z"/>
<path class="st1" d="M8.7,18.3v-1.7c0-1.1-0.9-2.1-2-2.1h0c-1.1,0-2,0.9-2,2.1v1.7"/>
</svg>
