<?xml version="1.0" encoding="UTF-8"?>
<svg id="Layer_1" xmlns="http://www.w3.org/2000/svg" version="1.1" viewBox="0 0 24 24">
  <!-- Generator: Adobe Illustrator 30.2.0, SVG Export Plug-In . SVG Version: 2.1.1 Build 105)  -->
  <defs>
    <style>
      .st0 {
        fill: #fff;
      }

      .st1 {
        fill: none;
      }
    </style>
  </defs>
  <path class="st1" d="M0,0h24v24H0V0Z"/>
  <path class="st0" d="M21.47,13.33l-.33-.33-.14-1.39-2.08-5.33c-.2-.59-.76-1.01-1.42-1.01H6.5c-.66,0-1.21.42-1.42,1.01l-2.08,5.33-.15,1.4-.3.31c-.23.24-.31.56-.31.84v5.84c0,.55.45,1,1,1h.76c.55,0,1-.45,1-1v-1.67h14.22v1.67c0,.55.45,1,1,1h.59c.55,0,1-.45,1-1v-5.82c0-.37-.13-.64-.35-.86h0ZM6.5,6.78h11l1.5,3.84H5s1.5-3.84,1.5-3.84ZM5.95,16c-.83,0-1.5-.67-1.5-1.5s.67-1.5,1.5-1.5,1.5.67,1.5,1.5-.67,1.5-1.5,1.5ZM9.18,17.49c-.5,0-.9-.4-.9-.9s.4-.9.9-.9.9.4.9.9-.4.9-.9.9ZM10.8,15.97c-.5,0-.9-.4-.9-.9s.4-.9.9-.9.9.4.9.9-.4.9-.9.9ZM12.17,15.08c0-.5.4-.9.9-.9s.9.4.9.9-.4.9-.9.9-.9-.4-.9-.9ZM14.8,17.3c-.5,0-.9-.4-.9-.9s.4-.9.9-.9.9.4.9.9-.4.9-.9.9ZM18.05,16c-.83,0-1.5-.67-1.5-1.5s.67-1.5,1.5-1.5,1.5.67,1.5,1.5-.67,1.5-1.5,1.5Z"/>
</svg>